<svg xmlns="http://www.w3.org/2000/svg" xmlns:xlink="http://www.w3.org/1999/xlink" xmlns:lucid="lucid" width="1324" height="1077.66"><g transform="translate(822 902)" lucid:page-tab-id="0_0"><path d="M-1000-1000h2000V500h-2000z" fill="#fff"/><path d="M-80-450.46a6 6 0 0 1 6-6h568a6 6 0 0 1 6 6v568a6 6 0 0 1-6 6H-74a6 6 0 0 1-6-6z" fill="#f2f3f5"/><path d="M1.73-456.46h75.74m37.86 0h75.74m37.86 0h75.74m37.86 0h75.74m37.86 0H494a6 6 0 0 1 6 6v37.87m0 37.88V-299m0 37.88v75.73m0 37.88v75.73m0 37.88V41.8m0 37.88v37.86a6 6 0 0 1-6 6h-37.87m-37.86 0h-75.74m-37.86 0h-75.74m-37.86 0h-75.74m-37.86 0H1.73m-37.86 0H-74a6 6 0 0 1-6-6V79.68m0-37.87V-33.9m0-37.87v-75.72m0-37.87v-75.72m0-37.87v-75.72m0-37.87v-37.86a6 6 0 0 1 6-6h37.87" stroke="#000" stroke-width="4" fill="none"/><use xlink:href="#a" transform="matrix(1,0,0,1,-75,-451.45606223909977) translate(260.9866666666667 291.1875)"/><path d="M53.08-860H141v33.8H53.08zm44.8 33.8H141v153.27H97.88zm-44.8 153.27H141v27.6H96.76l-8.4-17.13H53.08zm-190.68-150.9H95.08v148.76H-137.6zm106.4 151.37h22.12v10.95H-31.2zm-97.16 13.57h215.6l18.2 36.9H-139z" fill="#ffc000"/><path d="M-98.68-652.94h5.88v4.76h-5.88zm9.8 0H-83v4.76h-5.88zm9.8 0h5.88v4.76h-5.88zm9.8 0h5.88v4.76h-5.88zm9.8 0h5.88v4.76h-5.88zm9.8 0h5.88v4.76h-5.88zm9.8 0H-34v4.76h-5.88zm9.8 0h5.88v4.76h-5.88zm9.8 0h5.88v4.76h-5.88zm9.8 0h5.88v4.76h-5.88zm9.8 0H5.2v4.76H-.68zm9.8 0H15v4.76H9.12zm9.8 0h5.88v4.76h-5.88zm9.8 0h5.88v4.76h-5.88zm9.8 0h5.88v4.76h-5.88zm9.52 0h5.88v4.76h-5.88zm-123.48 8.1h5.88v4.75h-5.88zm10.36 0h5.88v4.75h-5.88zm10.36 0h5.88v4.75h-5.88zm10.36 0h5.88v4.75h-5.88zm10.36 0h5.88v4.75H-34zm10.36 0h5.88v4.75h-5.88zm10.36 0h5.88v4.75h-5.88zm10.36 0h5.88v4.75h-5.88zm10.36 0h5.88v4.75H7.44zm10.36 0h5.88v4.75H17.8zm8.96 0h5.88v4.75h-5.88zm-82.88 13.32h77.28v7.38h-77.28zm-70.84-183.26H85.28v133.04h-212.24zM113.56-847.4a1.43 1.43 0 0 1 1.43-1.4h16.17a1.43 1.43 0 0 1 1.43 1.4 1.43 1.43 0 0 1-1.43 1.44H115a1.43 1.43 0 0 1-1.44-1.43zm0 7.87a1.43 1.43 0 0 1 1.43-1.43h16.17a1.43 1.43 0 0 1 1.43 1.43 1.43 1.43 0 0 1-1.43 1.43H115a1.43 1.43 0 0 1-1.44-1.43z" fill="#fff"/><path d="M-99-800.7a6 6 0 0 1 6-6H55a6 6 0 0 1 6 6v97.7a6 6 0 0 1-6 6H-93a6 6 0 0 1-6-6z" stroke="#635dff" stroke-width="4" fill="#fff"/><use xlink:href="#b" transform="matrix(1,0,0,1,-86.99990000000247,-794.7041810517351) translate(1 34.75)"/><use xlink:href="#c" transform="matrix(1,0,0,1,-86.99990000000247,-794.7041810517351) translate(10.786666666666662 66.11)"/><path d="M-818-491.14a6 6 0 0 1 6-6h638a6 6 0 0 1 6 6v643.9a6 6 0 0 1-6 6h-638a6 6 0 0 1-6-6z" fill="#f2f3f5"/><path d="M-726.93-497.14h85.06m42.54 0h85.06m42.54 0h85.06m42.54 0h85.06m42.54 0H-174a6 6 0 0 1 6 6v42.93m0 42.9v85.87m0 42.92v85.85m0 42.92v85.86m0 42.92V66.9m0 42.93v42.93a6 6 0 0 1-6 6h-42.53m-42.54 0h-85.06m-42.54 0h-85.06m-42.54 0h-85.06m-42.54 0h-85.06m-42.54 0H-812a6 6 0 0 1-6-6v-42.93m0-42.92v-85.85m0-42.92v-85.86m0-42.92v-85.86m0-42.93v-85.86m0-42.9v-42.94a6 6 0 0 1 6-6h42.53" stroke="#000" stroke-width="4" fill="none"/><use xlink:href="#a" transform="matrix(1,0,0,1,-813.0000499999987,-492.1387400629176) translate(295.9866666666667 326.8125)"/><path d="M-713.5-294.8h-53c-3.15 0-5.73-2.6-5.73-5.75v-53c0-3.1 2.58-5.68 5.74-5.68h53c3.15 0 5.73 2.58 5.73 5.67v53c0 3.17-2.58 5.75-5.74 5.75zm-53-60.76h-.05c-1.1 0-2.07.9-2.07 2v53c0 1.17.97 2.07 2.13 2.07h53c1.15 0 2.12-.9 2.12-2.05v-53c-.07-1.1-.97-2.07-2.13-2z" stroke="#fff" stroke-opacity="0" fill="#ba23f6"/><path d="M-761.03-367.04h3.64v9.6h-3.63v-9.6zM-751.42-367.04h3.65v9.6h-3.65v-9.6zM-741.82-367.04h3.64v9.6h-3.64v-9.6zM-732.23-367.04h3.65v9.6h-3.65v-9.6zM-722.6-367.04h3.63v9.6h-3.64v-9.6zM-761.03-296.63h3.64v9.6h-3.63v-9.6zM-751.42-296.63h3.65v9.6h-3.65v-9.6zM-741.82-296.63h3.64v9.6h-3.64v-9.6zM-732.23-296.63h3.65v9.6h-3.65v-9.6zM-722.6-296.63h3.63v9.6h-3.64v-9.6zM-780-348.07h9.6v3.64h-9.6v-3.64zM-780-338.45h9.6v3.64h-9.6v-3.65zM-780-328.86h9.6v3.64h-9.6v-3.64zM-780-319.26h9.6v3.64h-9.6v-3.64zM-780-309.65h9.6v3.64h-9.6v-3.65zM-709.6-348.07h9.6v3.64h-9.6v-3.64zM-709.6-338.45h9.6v3.64h-9.6v-3.65zM-709.6-328.86h9.6v3.64h-9.6v-3.64zM-709.6-319.26h9.6v3.64h-9.6v-3.64zM-709.6-309.65h9.6v3.64h-9.6v-3.65zM-737.85-310.23c-8.04 0-14.57-6.53-14.57-14.57s6.53-14.56 14.57-14.56 14.56 6.52 14.56 14.56c0 8.04-6.5 14.57-14.55 14.57zm0-25.5c-6.03 0-10.93 4.9-10.93 10.93 0 6.03 4.9 10.93 10.93 10.93 6.03 0 10.92-4.9 10.92-10.93-.03-6-4.92-10.87-10.92-10.84z" stroke="#fff" stroke-opacity="0" fill="#ba23f6"/><path d="M-737.85-315.33c-5.22 0-9.45-4.24-9.45-9.45 0-5.22 4.23-9.45 9.45-9.45 5.2 0 9.45 4.23 9.45 9.45v.02c-.02 5.2-4.24 9.43-9.45 9.43zm0-15.23c-3.2 0-5.8 2.58-5.8 5.8 0 3.2 2.6 5.8 5.8 5.8 3.2 0 5.8-2.6 5.8-5.8 0-3.22-2.6-5.8-5.8-5.8zM-752.74-337.96h-6.47c-1 0-1.83-.82-1.83-1.82v-2.9c-.16-1.92 1.25-3.62 3.17-3.78h3.64c1.92.1 3.4 1.72 3.3 3.63v3.05c0 1-.82 1.82-1.82 1.82zm-4.6-3.64h2.77v-1.02-.15h-2.72v.15zM-753.8-331.84h-4.4c-.53 0-.98-.4-1-.92v-1.36c.02-.53.47-.93 1-.9h4.4c.53-.03.97.37 1 .9v1.36c-.03.53-.47.94-1 .92z" stroke="#fff" stroke-opacity="0" fill="#ba23f6"/><path d="M-719-306h-42.05c-2.7 0-4.8-2.15-4.8-4.8v-26.08c.05-2.6 2.17-4.7 4.8-4.7h13.23l.52-2.62c.3-1.5 1.65-3.87 3.82-3.87H-732c2.2 0 3.5 2.36 3.8 3.87l.58 2.6h8.63c2.7 0 4.82 2.15 4.82 4.8v26c0 2.65-2.12 4.8-4.8 4.8zm-42.05-31.97c-.67 0-1.2.5-1.2 1.17v26c0 .63.53 1.13 1.2 1.13H-719c.68 0 1.2-.5 1.2-1.13v-26.08c0-.63-.52-1.14-1.2-1.14h-10.06c-.88 0-1.66-.58-1.8-1.47l-.9-3.94c-.1-.34-.2-.63-.46-.97h-10.95c-.2.3-.36.58-.47.96l-.82 4c-.2.84-.93 1.47-1.86 1.42z" stroke="#fff" stroke-opacity="0" fill="#ba23f6"/><use xlink:href="#d" transform="matrix(1,0,0,1,-810,-278.03863669588424) translate(16.346666666666657 24)"/><use xlink:href="#e" transform="matrix(1,0,0,1,-810,-278.03863669588424) translate(108.53333333333333 24)"/><path d="M-713.5-143.33h-53c-3.15 0-5.73-2.58-5.73-5.73v-53.02c0-3.1 2.58-5.67 5.74-5.67h53c3.15 0 5.73 2.58 5.73 5.67v53.02c0 3.15-2.58 5.73-5.74 5.73zm-53-60.74h-.05c-1.1 0-2.07.9-2.07 2v53c0 1.16.97 2.07 2.13 2.07h53c1.15 0 2.12-.9 2.12-2.06v-53.02c-.07-1.1-.97-2.06-2.13-2z" stroke="#fff" stroke-opacity="0" fill="#ba23f6"/><path d="M-761.03-215.56h3.64v9.6h-3.63v-9.6zM-751.42-215.56h3.65v9.6h-3.65v-9.6zM-741.82-215.56h3.64v9.6h-3.64v-9.6zM-732.23-215.56h3.65v9.6h-3.65v-9.6zM-722.6-215.56h3.63v9.6h-3.64v-9.6zM-761.03-145.15h3.64v9.6h-3.63v-9.6zM-751.42-145.15h3.65v9.6h-3.65v-9.6zM-741.82-145.15h3.64v9.6h-3.64v-9.6zM-732.23-145.15h3.65v9.6h-3.65v-9.6zM-722.6-145.15h3.63v9.6h-3.64v-9.6zM-780-196.6h9.6v3.66h-9.6v-3.65zM-780-186.97h9.6v3.64h-9.6v-3.64zM-780-177.38h9.6v3.64h-9.6v-3.64zM-780-167.78h9.6v3.64h-9.6v-3.64zM-780-158.17h9.6v3.64h-9.6v-3.64zM-709.6-196.6h9.6v3.66h-9.6v-3.65zM-709.6-186.97h9.6v3.64h-9.6v-3.64zM-709.6-177.38h9.6v3.64h-9.6v-3.64zM-709.6-167.78h9.6v3.64h-9.6v-3.64zM-709.6-158.17h9.6v3.64h-9.6v-3.64zM-737.85-158.75c-8.04 0-14.57-6.53-14.57-14.57s6.53-14.56 14.57-14.56 14.56 6.52 14.56 14.56c0 8.04-6.5 14.57-14.55 14.57zm0-25.5c-6.03 0-10.93 4.9-10.93 10.93 0 6.03 4.9 10.93 10.93 10.93 6.03 0 10.92-4.9 10.92-10.92-.03-6-4.92-10.86-10.92-10.84z" stroke="#fff" stroke-opacity="0" fill="#ba23f6"/><path d="M-737.85-163.85c-5.22 0-9.45-4.23-9.45-9.45 0-5.22 4.23-9.45 9.45-9.45 5.2 0 9.45 4.23 9.45 9.45v.02c-.02 5.22-4.24 9.43-9.45 9.43zm0-15.23c-3.2 0-5.8 2.6-5.8 5.8 0 3.2 2.6 5.8 5.8 5.8 3.2 0 5.8-2.6 5.8-5.8 0-3.2-2.6-5.8-5.8-5.8zM-752.74-186.48h-6.47c-1 0-1.83-.82-1.83-1.82v-2.9c-.16-1.9 1.25-3.6 3.17-3.78h3.64c1.92.1 3.4 1.72 3.3 3.63v3.05c0 1-.82 1.82-1.82 1.82zm-4.6-3.64h2.77v-1.02-.15l-2.72.02v.14zM-753.8-180.36h-4.4c-.53.02-.98-.4-1-.9v-1.38c.02-.53.47-.93 1-.9h4.4c.53-.03.97.38 1 .9v1.36c-.03.53-.47.94-1 .92z" stroke="#fff" stroke-opacity="0" fill="#ba23f6"/><path d="M-719-154.53h-42.05c-2.7 0-4.8-2.14-4.8-4.8v-26.07c.05-2.6 2.17-4.7 4.8-4.7h13.23l.52-2.62c.3-1.5 1.65-3.87 3.82-3.87H-732c2.2 0 3.5 2.37 3.8 3.88l.58 2.6h8.63c2.7 0 4.82 2.16 4.82 4.8v26c0 2.65-2.12 4.8-4.8 4.8zm-42.05-31.96c-.67 0-1.2.5-1.2 1.2v25.98c0 .63.53 1.13 1.2 1.13H-719c.68 0 1.2-.5 1.2-1.12v-26.08c0-.63-.52-1.13-1.2-1.13h-10.06c-.88 0-1.66-.6-1.8-1.48l-.9-3.96c-.1-.34-.2-.63-.46-.97h-10.95c-.2.3-.36.6-.47.97l-.82 4c-.2.84-.93 1.47-1.86 1.43z" stroke="#fff" stroke-opacity="0" fill="#ba23f6"/><use xlink:href="#d" transform="matrix(1,0,0,1,-810,-126.55753579457837) translate(16.346666666666657 24)"/><use xlink:href="#f" transform="matrix(1,0,0,1,-810,-126.55753579457837) translate(108.53333333333333 24)"/><use xlink:href="#g" transform="matrix(1,0,0,1,-810,-126.55753579457837) translate(13.96 55.36)"/><path d="M-780-35.96a6 6 0 0 1 6-6h88a6 6 0 0 1 6 6v80.24a6 6 0 0 1-6 6h-88a6 6 0 0 1-6-6z" stroke="#ba23f6" stroke-width="4" fill="#fbf0ff"/><use xlink:href="#h" transform="matrix(1,0,0,1,-775,-36.96366533534217) translate(22.173333333333332 49.9375)"/><path d="M-640-413.82a6 6 0 0 1 6-6h428a6 6 0 0 1 6 6V116.3a6 6 0 0 1-6 6h-428a6 6 0 0 1-6-6z" fill="#fbf0ff"/><path d="M-593.24-419.82h40.76m20.38 0h40.77m20.38 0h40.76m20.4 0h40.75m20.38 0h40.77m20.38 0h40.76m20.38 0H-206a6 6 0 0 1 6 6v19.64m0 19.63v39.27m0 19.63v39.27m0 19.64v39.26m0 19.64v39.27m0 19.63v39.27m0 19.63v39.27m0 19.63v39.27m0 19.64v39.26m0 19.64v19.63a6 6 0 0 1-6 6h-20.38m-20.38 0h-40.76m-20.38 0h-40.77m-20.38 0h-40.76m-20.4 0h-40.75m-20.38 0h-40.77m-20.38 0h-40.76m-20.38 0H-634a6 6 0 0 1-6-6V96.67m0-19.64V37.77m0-19.64v-39.27m0-19.63v-39.27m0-19.63v-39.27m0-19.63v-39.27m0-19.64v-39.26m0-19.64v-39.27m0-19.63v-39.27m0-19.63v-19.64a6 6 0 0 1 6-6h20.38" stroke="#ba23f6" stroke-width="4" fill="none"/><use xlink:href="#i" transform="matrix(1,0,0,1,-635,-414.8163315262393) translate(145.89333333333332 24)"/><use xlink:href="#j" transform="matrix(1,0,0,1,-635,-414.8163315262393) translate(224.50666666666666 24)"/><use xlink:href="#k" transform="matrix(1,0,0,1,-635,-414.8163315262393) translate(215 55.36)"/><use xlink:href="#k" transform="matrix(1,0,0,1,-635,-414.8163315262393) translate(215 86.72)"/><use xlink:href="#k" transform="matrix(1,0,0,1,-635,-414.8163315262393) translate(215 118.08)"/><use xlink:href="#k" transform="matrix(1,0,0,1,-635,-414.8163315262393) translate(215 149.44)"/><use xlink:href="#k" transform="matrix(1,0,0,1,-635,-414.8163315262393) translate(215 180.8)"/><use xlink:href="#k" transform="matrix(1,0,0,1,-635,-414.8163315262393) translate(215 212.16000000000003)"/><use xlink:href="#k" transform="matrix(1,0,0,1,-635,-414.8163315262393) translate(215 243.52000000000004)"/><use xlink:href="#k" transform="matrix(1,0,0,1,-635,-414.8163315262393) translate(215 274.88000000000005)"/><use xlink:href="#k" transform="matrix(1,0,0,1,-635,-414.8163315262393) translate(215 306.24000000000007)"/><use xlink:href="#k" transform="matrix(1,0,0,1,-635,-414.8163315262393) translate(215 337.6000000000001)"/><use xlink:href="#k" transform="matrix(1,0,0,1,-635,-414.8163315262393) translate(215 368.9600000000001)"/><use xlink:href="#k" transform="matrix(1,0,0,1,-635,-414.8163315262393) translate(215 400.3200000000001)"/><use xlink:href="#k" transform="matrix(1,0,0,1,-635,-414.8163315262393) translate(215 431.6800000000001)"/><use xlink:href="#k" transform="matrix(1,0,0,1,-635,-414.8163315262393) translate(215 463.04000000000013)"/><use xlink:href="#k" transform="matrix(1,0,0,1,-635,-414.8163315262393) translate(215 494.40000000000015)"/><use xlink:href="#k" transform="matrix(1,0,0,1,-635,-414.8163315262393) translate(215 525.7600000000002)"/><use xlink:href="#k" transform="matrix(1,0,0,1,-635,-414.8163315262393) translate(215 557.1200000000001)"/><use xlink:href="#l" transform="matrix(1,0,0,1,-635,-414.8163315262393) translate(215 588.4800000000001)"/><path d="M-620-309.56a6 6 0 0 1 6-6h148a6 6 0 0 1 6 6v108a6 6 0 0 1-6 6h-148a6 6 0 0 1-6-6z" stroke="#635dff" stroke-width="4" fill="#f2f2ff"/><use xlink:href="#m" transform="matrix(1,0,0,1,-608,-303.5575357945783) translate(32.93333333333333 42)"/><use xlink:href="#n" transform="matrix(1,0,0,1,-608,-303.5575357945783) translate(7.346666666666664 73.36)"/><path d="M-620-49.84a6 6 0 0 1 6-6h148a6 6 0 0 1 6 6v108a6 6 0 0 1-6 6h-148a6 6 0 0 1-6-6z" stroke="#635dff" stroke-width="4" fill="#f2f2ff"/><use xlink:href="#o" transform="matrix(1,0,0,1,-608,-43.84239962994093) translate(25.346666666666664 42)"/><use xlink:href="#p" transform="matrix(1,0,0,1,-608,-43.84239962994093) translate(15.29333333333333 73.36)"/><use xlink:href="#q" transform="matrix(1,0,0,1,-608,-43.84239962994093) translate(67.69333333333333 73.36)"/><path d="M-676 4.16H-644.74" stroke="#e81313" stroke-width="4" fill="none"/><path d="M-675.95 6.13H-678V2.18h2.05z" stroke="#e81313" stroke-width=".05" fill="#e81313"/><path d="M-628.47 4.16l-14.27 4.63V-.5z" stroke="#e81313" stroke-width="4" fill="#e81313"/><path d="M-665.75-328.92l1.22.3 1.15.47 1.07.65.94.82.82.95.65 1.07.5 1.16.28 1.2.1 1.18v59.5l.05.7.15.6.24.6.33.53.4.48.5.4.52.34.6.25.6.14.7.07h10.2v3.95h-10.35l-1.17-.1-1.22-.3-1.15-.47-1.07-.65-.94-.8-.82-.97-.65-1.06-.5-1.16-.28-1.2-.1-1.18v-59.48l-.05-.7-.15-.62-.24-.58-.33-.54-.4-.48-.5-.4-.52-.34-.6-.24-.6-.15-.7-.06H-698V-329h31.08z" stroke="#e81313" stroke-width=".05" fill="#e81313"/><path d="M-697.95-325.06H-703v-.16h3v-3.64h-3v-.15h5.05z" fill="#e81313"/><path stroke="#e81313" stroke-width=".05" fill="#e81313"/><path d="M-628.47-255.56l-14.27 4.64v-9.27z" fill="#e81313"/><path d="M-622.08-255.56l-22.63 7.36v-14.7zm-18.68 1.92l5.9-1.92-5.9-1.9z" stroke="#e81313" stroke-width=".05" fill="#e81313"/><path d="M-698-175.56h31a6 6 0 0 0 6-6v-67.5a6 6 0 0 1 6-6h10.26" stroke="#e81313" stroke-width="4" fill="none"/><path d="M-697.95-173.58H-703v-.16h3v-3.64h-3v-.15h5.05z" stroke="#e81313" stroke-width=".05" fill="#e81313"/><path d="M-628.47-255.05l-14.27 4.64v-9.28z" stroke="#e81313" stroke-width="4" fill="#e81313"/><path d="M-400-189.56a6 6 0 0 1 6-6h148a6 6 0 0 1 6 6v108a6 6 0 0 1-6 6h-148a6 6 0 0 1-6-6z" stroke="#635dff" stroke-width="4" fill="#f2f2ff"/><use xlink:href="#r" transform="matrix(1,0,0,1,-388,-183.55753579457837) translate(24.85333333333333 42)"/><use xlink:href="#s" transform="matrix(1,0,0,1,-388,-183.55753579457837) translate(37.68 73.36)"/><path d="M-456 4.16h130a6 6 0 0 0 6-6v-48.98" stroke="#635dff" stroke-width="4" fill="none"/><path d="M-455.95 6.13H-458V2.18h2.05z" stroke="#635dff" stroke-width=".05" fill="#635dff"/><path d="M-320-67.08l4.63 14.26h-9.26z" stroke="#635dff" stroke-width="4" fill="#635dff"/><path d="M-456-255.56h20a6 6 0 0 1 6 6v108.74a5.26 5.26 0 0 0 5.26 5.26" stroke="#635dff" stroke-width="4" fill="none"/><path d="M-455.95-253.58H-458v-3.95h2.05z" stroke="#635dff" stroke-width=".05" fill="#635dff"/><path d="M-408.47-135.56l-14.27 4.64v-9.27z" stroke="#635dff" stroke-width="4" fill="#635dff"/><path d="M-211.03-347.48l-.1 1.17-.28 1.2-.5 1.17-.64 1.06-.82.96-.95.8-1.08.65-1.15.48-1.22.3-1.17.1h-95l-.7.04-.62.15-.58.24-.54.33-.48.4-.4.48-.34.54-.24.58-.15.6-.05.72v135.92h-3.96v-136.07l.1-1.18.3-1.22.47-1.16.64-1.07.82-.95.95-.8 1.08-.67 1.15-.48 1.22-.3 1.17-.08h95l.7-.06.62-.13.58-.25.54-.33.48-.42.4-.47.34-.53.24-.6.15-.6.06-.7v-195.53h3.94zm87.3-402.4h-83.2l-.7.06-.6.14-.6.24-.53.33-.48.4-.4.48-.34.54-.24.58-.15.62-.06.7v171.26h-3.94v-171.4l.1-1.18.28-1.22.5-1.16.64-1.07.82-.95.95-.8 1.08-.67 1.15-.48 1.22-.3 1.17-.08h83.34z" stroke="#82755b" stroke-width=".05" fill="#82755b"/><path d="M-318.02-197.56h-3.96v-2.05h3.96z" fill="#82755b"/><path stroke="#82755b" stroke-width=".05" fill="#82755b"/><path d="M-107.47-751.86l-14.27 4.64v-9.27z" fill="#82755b"/><path d="M-101.08-751.86l-22.63 7.36v-14.7zm-18.68 1.92l5.9-1.9-5.9-1.93z" stroke="#82755b" stroke-width=".05" fill="#82755b"/><use xlink:href="#t" transform="matrix(1,0,0,1,-320.6133833333321,-574.5200571421525) translate(0 24)"/><use xlink:href="#u" transform="matrix(1,0,0,1,-320.6133833333321,-574.5200571421525) translate(162.21333333333334 24)"/><path d="M-50-328.17a6 6 0 0 1 6-6h208a6 6 0 0 1 6 6v62a6 6 0 0 1-6 6H-44a6 6 0 0 1-6-6z" stroke="#ba23f6" stroke-width="4" fill="#fbf0ff"/><use xlink:href="#v" transform="matrix(1,0,0,1,-45,-329.16886193137606) translate(0 40)"/><use xlink:href="#w" transform="matrix(1,0,0,1,-45,-329.16886193137606) translate(20.240000000000002 40)"/><use xlink:href="#x" transform="matrix(1,0,0,1,-45,-329.16886193137606) translate(97.25333333333333 40)"/><path d="M138.44-296.7h-7.98c-.22.04-.42-.13-.46-.37 0-.07.02-.1.04-.17l9.58-18c.08-.16.24-.23.4-.23h9.44c.22-.04.42.13.46.37 0 .1-.04.17-.08.24L138.6-300.8h10.94c.22-.04.42.13.46.37 0 .1-.04.2-.12.26l-18.2 18.03c-.18.1-1.38 1.04-.8-.4z" stroke="#000" stroke-opacity="0" fill="url(#y)"/><path d="M250-390.46a6 6 0 0 1 6-6h148a6 6 0 0 1 6 6v148a6 6 0 0 1-6 6H256a6 6 0 0 1-6-6z" stroke="#ba23f6" stroke-width="4" fill="#fbf0ff"/><use xlink:href="#z" transform="matrix(1,0,0,1,255,-391.4560622390998) translate(17.813333333333333 66.1875)"/><use xlink:href="#A" transform="matrix(1,0,0,1,255,-391.4560622390998) translate(41.48 97.5475)"/><path d="M50-205.74a6 6 0 0 1 6-6h368a6 6 0 0 1 6 6v311.6a6 6 0 0 1-6 6H56a6 6 0 0 1-6-6z" fill="#f2f2ff"/><path d="M96.9-211.74h40.88m20.44 0h40.9m20.44 0h40.88m20.45 0h40.88m20.44 0h40.9m20.44 0H424a6 6 0 0 1 6 6v20.77m0 20.77v41.55m0 20.77v41.55m0 20.77V2m0 20.76V64.3m0 20.78v20.78a6 6 0 0 1-6 6h-20.44m-20.45 0h-40.88m-20.44 0h-40.9m-20.44 0h-40.88m-20.45 0h-40.88m-20.44 0h-40.9m-20.44 0H56a6 6 0 0 1-6-6V85.08m0-20.77V22.77M50 2v-41.56m0-20.77v-41.55m0-20.77v-41.55m0-20.77v-20.77a6 6 0 0 1 6-6h20.44" stroke="#000" stroke-width="4" fill="none"/><use xlink:href="#B" transform="matrix(1,0,0,1,55,-206.74322747699134) translate(0 24)"/><use xlink:href="#k" transform="matrix(1,0,0,1,55,-206.74322747699134) translate(0 55.36)"/><use xlink:href="#k" transform="matrix(1,0,0,1,55,-206.74322747699134) translate(0 86.72)"/><use xlink:href="#k" transform="matrix(1,0,0,1,55,-206.74322747699134) translate(0 118.08)"/><use xlink:href="#k" transform="matrix(1,0,0,1,55,-206.74322747699134) translate(0 149.44)"/><use xlink:href="#k" transform="matrix(1,0,0,1,55,-206.74322747699134) translate(0 180.8)"/><use xlink:href="#k" transform="matrix(1,0,0,1,55,-206.74322747699134) translate(0 212.16000000000003)"/><use xlink:href="#k" transform="matrix(1,0,0,1,55,-206.74322747699134) translate(0 243.52000000000004)"/><use xlink:href="#k" transform="matrix(1,0,0,1,55,-206.74322747699134) translate(0 274.88000000000005)"/><use xlink:href="#l" transform="matrix(1,0,0,1,55,-206.74322747699134) translate(0 306.24000000000007)"/><path d="M250-170.46a6 6 0 0 1 6-6h148a6 6 0 0 1 6 6v59.38a6 6 0 0 1-6 6H256a6 6 0 0 1-6-6z" stroke="#ba23f6" stroke-width="4" fill="#fbf0ff"/><use xlink:href="#C" transform="matrix(1,0,0,1,262,-164.4560622390997) translate(28.119999999999997 33)"/><path d="M174-297.17h30a6 6 0 0 0 6-6v-7.3a6 6 0 0 1 6-6h9.26" stroke="#54c45e" stroke-width="4" fill="none"/><path d="M174.05-295.2H172v-3.94h2.05z" stroke="#54c45e" stroke-width=".05" fill="#54c45e"/><path d="M241.53-316.46l-14.27 4.64v-9.27z" stroke="#54c45e" stroke-width="4" fill="#54c45e"/><path d="M287.8-232.46v25.53a.47.47 0 0 1-.47.47.47.47 0 0 0-.47.48v4.8" stroke="#fc9432" stroke-width="4" fill="none"/><path d="M289.78-232.4h-3.95v-2.06h3.95z" stroke="#fc9432" stroke-width=".05" fill="#fc9432"/><path d="M286.86-184.93l-4.63-14.26h9.27z" stroke="#fc9432" stroke-width="4" fill="#fc9432"/><path d="M312.02-232.46v25.8a.2.2 0 0 1-.2.2.2.2 0 0 0-.2.2v5.07" stroke="#fc9432" stroke-width="4" fill="none"/><path d="M314-232.4h-3.95v-2.06H314z" stroke="#fc9432" stroke-width=".05" fill="#fc9432"/><path d="M311.62-184.93L307-199.2h9.26z" stroke="#fc9432" stroke-width="4" fill="#fc9432"/><path d="M350.77-232.46v25.77a.23.23 0 0 0 .23.24.23.23 0 0 1 .24.24v5.03" stroke="#fc9432" stroke-width="4" fill="none"/><path d="M352.75-232.4h-3.95v-2.06h3.95z" stroke="#fc9432" stroke-width=".05" fill="#fc9432"/><path d="M351.24-184.93l-4.64-14.26h9.27z" stroke="#fc9432" stroke-width="4" fill="#fc9432"/><path d="M371.53-232.46v25.54a.47.47 0 0 0 .46.46.47.47 0 0 1 .46.47v4.8" stroke="#fc9432" stroke-width="4" fill="none"/><path d="M373.5-232.4h-3.95v-2.06h3.95z" stroke="#fc9432" stroke-width=".05" fill="#fc9432"/><path d="M372.46-184.93l-4.64-14.26h9.27z" stroke="#fc9432" stroke-width="4" fill="#fc9432"/><path d="M250-70.46a6 6 0 0 1 6-6h148a6 6 0 0 1 6 6v68a6 6 0 0 1-6 6H256a6 6 0 0 1-6-6z" stroke="#ba23f6" stroke-width="4" fill="#fbf0ff"/><use xlink:href="#D" transform="matrix(1,0,0,1,262,-64.45606223909977) translate(38.89333333333333 38)"/><path d="M80-110.46a6 6 0 0 1 6-6h108a6 6 0 0 1 6 6v97.43a6 6 0 0 1-6 6H86a6 6 0 0 1-6-6z" stroke="#ba23f6" stroke-width="4" fill="#fbf0ff"/><use xlink:href="#E" transform="matrix(1,0,0,1,85,-111.4560622390998) translate(37.266666666666666 42.64)"/><use xlink:href="#F" transform="matrix(1,0,0,1,85,-111.4560622390998) translate(-0.3333333333333357 74)"/><path d="M365.23-101.08v.03" stroke="#ba23f6" stroke-width="4" fill="none"/><path d="M367.2-101.03h-3.94v-2.05h3.95z" stroke="#ba23f6" stroke-width=".05" fill="#ba23f6"/><path d="M365.13-84.93l-4.55-14.3 9.27.07z" stroke="#ba23f6" stroke-width="4" fill="#ba23f6"/><path d="M301.23-101.08" stroke="#ba23f6" stroke-width="4" fill="none"/><path d="M303.2-101.03h-3.94v-2.05h3.95z" stroke="#ba23f6" stroke-width=".05" fill="#ba23f6"/><path d="M301.32-84.93l-4.7-14.24 9.26-.05z" stroke="#ba23f6" stroke-width="4" fill="#ba23f6"/><path d="M246-158.12H146a6 6 0 0 0-6 6v10.93" stroke="#ba23f6" stroke-width="4" fill="none"/><path d="M248-156.14h-2.05v-3.95H248z" stroke="#ba23f6" stroke-width=".05" fill="#ba23f6"/><path d="M140-124.93l-4.63-14.26h9.26z" stroke="#ba23f6" stroke-width="4" fill="#ba23f6"/><path d="M246-129.04h-15a6 6 0 0 0-6 6V-62a.26.26 0 0 1-.26.26" stroke="#ba23f6" stroke-width="4" fill="none"/><path d="M248-127.06h-2.05V-131H248z" stroke="#ba23f6" stroke-width=".05" fill="#ba23f6"/><path d="M208.47-61.74l14.27-4.64v9.27z" stroke="#ba23f6" stroke-width="4" fill="#ba23f6"/><path d="M90-450.6a6 6 0 0 1 6-6h228a6 6 0 0 1 6 6v62a6 6 0 0 1-6 6H96a6 6 0 0 1-6-6z" stroke="#000" stroke-opacity="0" stroke-width="4" fill="#fff" fill-opacity="0"/><g><use xlink:href="#G" transform="matrix(1,0,0,1,94.99999999999989,-451.59449638576075) translate(47.54666666666667 40)"/><use xlink:href="#H" transform="matrix(1,0,0,1,94.99999999999989,-451.59449638576075) translate(100.13333333333333 40)"/></g><path d="M324.08-548.7l1.17.1 1.22.28 1.15.48 1.07.65.94.83.82.95.65 1.07.5 1.15.28 1.22.1 1.17v140.34h-3.96v-140.2l-.05-.7-.15-.6-.24-.6-.33-.53-.4-.47-.5-.4-.53-.34-.58-.25-.6-.15-.72-.06h-108.6v-3.95zm-341.05-3.4l.15.6.24.6.33.53.4.48.5.42.53.33.58.24.6.14.72.05h108.6v3.94H-13.1l-1.17-.1-1.22-.28-1.15-.48-1.07-.65-.94-.82-.82-.94-.65-1.07-.5-1.16-.28-1.22-.1-1.17v-119.62h3.96v119.46z" stroke="#82755b" stroke-width=".05" fill="#82755b"/><path d="M331.98-398.46h-3.96v-2.05h3.96z" fill="#82755b"/><path stroke="#82755b" stroke-width=".05" fill="#82755b"/><path d="M-14.37-674.27h-9.27l4.64-14.26z" fill="#82755b"/><path d="M-11.65-672.3h-14.7L-19-694.9zm-9.27-3.94h3.84l-1.92-5.9z" stroke="#82755b" stroke-width=".05" fill="#82755b"/><g><use xlink:href="#I" transform="matrix(1,0,0,1,95.67338333333211,-562.4106421454175) translate(0 24)"/><use xlink:href="#u" transform="matrix(1,0,0,1,95.67338333333211,-562.4106421454175) translate(66.64000000000001 24)"/></g><path d="M-30.5-368.05l.05.7.14.62.23.58.34.54.4.47.48.4.54.34.57.25.62.14.7.05h251.66v3.95H-26.56l-1.17-.1-1.22-.28-1.16-.48-1.07-.66-.96-.8-.8-.96-.66-1.07-.47-1.16-.3-1.23-.1-1.17V-620h3.96z" stroke="#fc9432" stroke-width=".05" fill="#fc9432"/><path d="M-30.5-619.95h-3.96V-622h3.95z" fill="#fc9432"/><path stroke="#fc9432" stroke-width=".05" fill="#fc9432"/><path d="M241.53-361.97l-14.27 4.63v-9.27z" fill="#fc9432"/><path d="M247.92-361.97l-22.63 7.35v-14.7zm-18.68 1.9l5.9-1.9-5.9-1.92z" stroke="#fc9432" stroke-width=".05" fill="#fc9432"/><path d="M262.5-809.88a7.8 7.8 0 0 1 7.54-5.8H424a4.6 4.6 0 0 1 4.45 5.8L397.5-693.83a7.8 7.8 0 0 1-7.54 5.8H236a4.6 4.6 0 0 1-4.45-5.8z" stroke="#82755b" stroke-width="4" fill="#dedeff"/><g><use xlink:href="#J" transform="matrix(1,0,0,1,234.99999999999977,-810.6786564968643) translate(21.771666666666672 49.8125)"/><use xlink:href="#K" transform="matrix(1,0,0,1,234.99999999999977,-810.6786564968643) translate(41.731666666666655 81.1725)"/></g><path d="M65-751.86H222.2" stroke="#82755b" stroke-width="4" fill="none"/><path d="M65.05-749.88H63v-3.95h2.05z" stroke="#82755b" stroke-width=".05" fill="#82755b"/><path d="M238.48-751.86l-14.27 4.64v-9.27z" stroke="#82755b" stroke-width="4" fill="#82755b"/><path d="M-820-888a12 12 0 0 1 12-12h456a12 12 0 0 1 12 12v353.53a12 12 0 0 1-12 12h-456a12 12 0 0 1-12-12z" stroke="#dfe3e8" stroke-width="4" fill="#fff"/><path d="M-781.7-815.85v-.14a14.36 14.36 0 0 1 14.35-14.35A14.36 14.36 0 0 1-753-816a14.36 14.36 0 0 1-14.35 14.37A14.36 14.36 0 0 1-781.7-816v-.14" stroke="#000" stroke-opacity=".25" fill="#54c45e"/><path d="M-781.7-768.75v-.15a14.36 14.36 0 0 1 14.35-14.35A14.36 14.36 0 0 1-753-768.9a14.36 14.36 0 0 1-14.35 14.36 14.36 14.36 0 0 1-14.36-14.36v-.14" stroke="#000" stroke-opacity=".25" fill="#ba23f6"/><path d="M-781.7-721.66v-.14a14.36 14.36 0 0 1 14.35-14.36A14.36 14.36 0 0 1-753-721.8a14.36 14.36 0 0 1-14.35 14.36 14.36 14.36 0 0 1-14.36-14.36v-.14" stroke="#000" stroke-opacity=".25" fill="#fc9432"/><path d="M-781.7-674.56v-.14a14.36 14.36 0 0 1 14.35-14.36A14.36 14.36 0 0 1-753-674.7a14.36 14.36 0 0 1-14.35 14.36 14.36 14.36 0 0 1-14.36-14.36v-.15" stroke="#000" stroke-opacity=".25" fill="#e81313"/><path d="M-781.7-627.46v-.15a14.36 14.36 0 0 1 14.35-14.37A14.36 14.36 0 0 1-753-627.6a14.36 14.36 0 0 1-14.35 14.35 14.36 14.36 0 0 1-14.36-14.36v-.15" stroke="#000" stroke-opacity=".25" fill="#635dff"/><path d="M-781.7-580.37v-.14a14.36 14.36 0 0 1 14.35-14.37A14.36 14.36 0 0 1-753-580.5a14.36 14.36 0 0 1-14.35 14.35 14.36 14.36 0 0 1-14.36-14.36v-.15" stroke="#000" stroke-opacity=".25" fill="#82755b"/><g><use xlink:href="#L" transform="matrix(1,0,0,1,-781.7105070993915,-871.2828803245436) translate(0 24.32)"/><use xlink:href="#M" transform="matrix(1,0,0,1,-781.7105070993915,-871.2828803245436) translate(134.37333333333333 24.32)"/><use xlink:href="#N" transform="matrix(1,0,0,1,-781.7105070993915,-871.2828803245436) translate(201.33333333333334 24.32)"/></g><g><use xlink:href="#O" transform="matrix(1,0,0,1,-738.6348275862069,-830.3505070993915) translate(0 27.32)"/><use xlink:href="#P" transform="matrix(1,0,0,1,-738.6348275862069,-830.3505070993915) translate(77.01333333333334 27.32)"/></g><g><use xlink:href="#Q" transform="matrix(1,0,0,1,-738.6348275862069,-783.254430831643) translate(0 27.32)"/><use xlink:href="#P" transform="matrix(1,0,0,1,-738.6348275862069,-783.254430831643) translate(100.32000000000002 27.32)"/></g><g><use xlink:href="#R" transform="matrix(1,0,0,1,-738.6348275862069,-736.1583545638946) translate(0 27.32)"/><use xlink:href="#P" transform="matrix(1,0,0,1,-738.6348275862069,-736.1583545638946) translate(121.12 27.32)"/></g><g><use xlink:href="#S" transform="matrix(1,0,0,1,-738.6348275862069,-689.0622782961461) translate(0 27.32)"/><use xlink:href="#T" transform="matrix(1,0,0,1,-738.6348275862069,-689.0622782961461) translate(54.61333333333334 27.32)"/><use xlink:href="#U" transform="matrix(1,0,0,1,-738.6348275862069,-689.0622782961461) translate(114.37333333333333 27.32)"/></g><g><use xlink:href="#V" transform="matrix(1,0,0,1,-738.6348275862069,-641.9662020283977) translate(0 27.32)"/><use xlink:href="#T" transform="matrix(1,0,0,1,-738.6348275862069,-641.9662020283977) translate(119.97333333333334 27.32)"/><use xlink:href="#U" transform="matrix(1,0,0,1,-738.6348275862069,-641.9662020283977) translate(179.73333333333335 27.32)"/></g><g><use xlink:href="#W" transform="matrix(1,0,0,1,-738.6348275862069,-594.8701257606492) translate(0 27.32)"/><use xlink:href="#X" transform="matrix(1,0,0,1,-738.6348275862069,-594.8701257606492) translate(89.06666666666668 27.32)"/></g><path d="M330 7.54v32a6 6 0 0 1-6 6H146a6 6 0 0 1-6-6V17.7" stroke="#ba23f6" stroke-width="4" fill="none"/><path d="M331.98 7.6h-3.96V5.54h3.96z" stroke="#ba23f6" stroke-width=".05" fill="#ba23f6"/><path d="M140 1.44l4.63 14.27h-9.26z" stroke="#ba23f6" stroke-width="4" fill="#ba23f6"/><path d="M-660-487.82a6 6 0 0 1 6-6h308a6 6 0 0 1 6 6v62a6 6 0 0 1-6 6h-308a6 6 0 0 1-6-6z" stroke="#000" stroke-opacity="0" stroke-width="4" fill="#fff" fill-opacity="0"/><g><use xlink:href="#Y" transform="matrix(1,0,0,1,-655,-488.8163315262393) translate(32.73333333333332 40)"/><use xlink:href="#H" transform="matrix(1,0,0,1,-655,-488.8163315262393) translate(194.94666666666666 40)"/></g><defs><path fill="#3a414a" d="M557-578H353V0H216v-578H11v-122h546v122" id="Z"/><path fill="#3a414a" d="M291-90c49 0 97-19 123-38l43 85c-40 32-117 57-191 57C103 14 34-89 33-250c-2-167 81-264 240-264 129 0 199 68 200 202 0 33-4 65-10 95H163c5 84 39 127 128 127zm61-208c5-67-19-112-81-112-71-1-98 47-105 112h186" id="aa"/><path fill="#3a414a" d="M170-256L20-500h155c34 56 71 109 93 177 24-68 63-121 98-177h141L356-260 517 0H366c-38-62-83-118-107-194-26 75-70 132-109 194H8" id="ab"/><path fill="#3a414a" d="M208 14C110 12 74-35 74-138v-252H5v-110h69v-94l130-37v131h122v110H204v192c2 58 2 97 50 97 30 0 44-6 67-16l23 100c-34 16-86 31-136 31" id="ac"/><g id="a"><use transform="matrix(0.02666666666666667,0,0,0.02666666666666667,0,0)" xlink:href="#Z"/><use transform="matrix(0.02666666666666667,0,0,0.02666666666666667,11.733333333333334,0)" xlink:href="#aa"/><use transform="matrix(0.02666666666666667,0,0,0.02666666666666667,24.72,0)" xlink:href="#ab"/><use transform="matrix(0.02666666666666667,0,0,0.02666666666666667,38.72,0)" xlink:href="#ac"/></g><path fill="#3a414a" d="M376-109c57 1 96-12 130-32l28 112C494 1 420 14 351 14 136 14 41-127 38-350c-3-258 153-398 418-356 28 4 50 12 68 19l-27 116c-35-16-76-21-131-21-127 0-187 96-184 242 2 141 56 237 194 241" id="ad"/><path fill="#3a414a" d="M269 14C107 14 36-88 33-250c-2-161 81-264 236-264 162 0 233 102 235 264 2 161-80 264-235 264zm0-418c-78 0-104 61-102 154 1 82 21 154 102 154 80 0 101-62 101-154 0-83-21-154-101-154" id="ae"/><path fill="#3a414a" d="M557-399c-51 0-73 31-86 71V0H341v-272c-3-78 0-124-67-127-48-2-73 31-87 66V0H57v-500h101l15 66h4c32-41 75-82 150-80 72 1 105 28 126 85 29-48 73-83 146-85 130-3 157 84 156 214V0H625v-281c-3-70-2-118-68-118" id="af"/><path fill="#3a414a" d="M278 14c-42 0-63-5-91-19v205H57v-700h95l15 60h4c33-47 73-74 148-74 142 0 188 93 188 251 0 164-68 277-229 277zm95-280c0-79-20-138-93-138-57 0-77 30-93 76v208c20 15 38 25 74 24 90-3 112-66 112-170" id="ag"/><path fill="#3a414a" d="M306-378c-38-49-172-17-221 4l-31-97c53-24 132-39 210-39 122 0 181 55 180 175-1 112-20 242 11 336H349l-21-69h-5c-28 41-74 78-147 76C81 5 23-45 23-138c0-142 140-164 291-160 5-37 4-65-8-80zM157-158c-3 37 24 59 62 59 49 0 79-27 96-55v-65c-71-4-153-3-158 61" id="ah"/><path fill="#3a414a" d="M177-434c23-61 95-96 173-66l-17 122c-64-28-134-1-146 55V0H57v-500h101l15 66h4" id="ai"/><path fill="#3a414a" d="M68-500h130V0H68v-500zm62-73c-46 0-81-26-81-68s35-70 81-70c45 0 85 29 85 70 0 42-40 68-85 68" id="aj"/><path fill="#3a414a" d="M200-90c53 9 88-53 47-80-80-53-213-55-211-192 2-102 65-152 171-152 67 0 135 17 175 39l-29 94c-31-11-84-29-129-29-54 0-78 51-41 74 81 50 213 53 211 187-2 110-75 163-194 163C133 14 65-7 25-31l36-97c31 17 89 40 139 38" id="ak"/><path fill="#3a414a" d="M338-514c121 0 155 79 155 203V0H363v-284c-1-72-12-113-77-115-52-1-86 36-99 75V0H57v-500h103l15 66h4c32-43 81-80 159-80" id="al"/><g id="b"><use transform="matrix(0.02666666666666667,0,0,0.02666666666666667,0,0)" xlink:href="#ad"/><use transform="matrix(0.02666666666666667,0,0,0.02666666666666667,13.946666666666667,0)" xlink:href="#ae"/><use transform="matrix(0.02666666666666667,0,0,0.02666666666666667,28.26666666666667,0)" xlink:href="#af"/><use transform="matrix(0.02666666666666667,0,0,0.02666666666666667,49.733333333333334,0)" xlink:href="#ag"/><use transform="matrix(0.02666666666666667,0,0,0.02666666666666667,64.13333333333334,0)" xlink:href="#ah"/><use transform="matrix(0.02666666666666667,0,0,0.02666666666666667,77.36000000000001,0)" xlink:href="#ai"/><use transform="matrix(0.02666666666666667,0,0,0.02666666666666667,86.72000000000001,0)" xlink:href="#aj"/><use transform="matrix(0.02666666666666667,0,0,0.02666666666666667,93.89333333333335,0)" xlink:href="#ak"/><use transform="matrix(0.02666666666666667,0,0,0.02666666666666667,105.14666666666668,0)" xlink:href="#ae"/><use transform="matrix(0.02666666666666667,0,0,0.02666666666666667,119.46666666666667,0)" xlink:href="#al"/></g><path fill="#3a414a" d="M405-155H190L137 0H0l252-705h101L605 0H461zM225-265h150c-28-85-59-167-73-266h-5c-14 99-44 182-72 266" id="am"/><path fill="#3a414a" d="M178 14C100 13 61-20 61-100v-600h130v532c1 39 5 67 38 67 22 0 33-3 52-11l14 102c-24 12-77 25-117 24" id="an"/><path fill="#3a414a" d="M283-512c75-1 146 12 197 30V0c1 145-82 211-224 212-78 1-132-10-176-31l27-103c36 13 74 27 129 27 98 0 121-48 117-144h-4C326-8 284 8 225 8 81 8 33-84 33-240c-1-172 82-272 250-272zM167-245c0 83 22 149 93 149 55 0 75-25 90-68v-225c-21-9-46-13-77-13-80 0-107 63-106 157" id="ao"/><path fill="#3a414a" d="M339-514c122 0 154 79 154 203V0H363v-284c-2-74-11-115-79-115-48 0-88 39-97 80V0H57v-700h130v256h4c32-41 74-70 148-70" id="ap"/><g id="c"><use transform="matrix(0.02666666666666667,0,0,0.02666666666666667,0,0)" xlink:href="#am"/><use transform="matrix(0.02666666666666667,0,0,0.02666666666666667,16.133333333333333,0)" xlink:href="#an"/><use transform="matrix(0.02666666666666667,0,0,0.02666666666666667,23.973333333333333,0)" xlink:href="#ao"/><use transform="matrix(0.02666666666666667,0,0,0.02666666666666667,38.266666666666666,0)" xlink:href="#ae"/><use transform="matrix(0.02666666666666667,0,0,0.02666666666666667,52.586666666666666,0)" xlink:href="#ai"/><use transform="matrix(0.02666666666666667,0,0,0.02666666666666667,61.94666666666667,0)" xlink:href="#aj"/><use transform="matrix(0.02666666666666667,0,0,0.02666666666666667,69.12,0)" xlink:href="#ac"/><use transform="matrix(0.02666666666666667,0,0,0.02666666666666667,78.42666666666668,0)" xlink:href="#ap"/><use transform="matrix(0.02666666666666667,0,0,0.02666666666666667,92.96000000000001,0)" xlink:href="#af"/></g><g id="d"><use transform="matrix(0.02666666666666667,0,0,0.02666666666666667,0,0)" xlink:href="#ad"/><use transform="matrix(0.02666666666666667,0,0,0.02666666666666667,14.613333333333335,0)" xlink:href="#ah"/><use transform="matrix(0.02666666666666667,0,0,0.02666666666666667,27.840000000000003,0)" xlink:href="#af"/><use transform="matrix(0.02666666666666667,0,0,0.02666666666666667,49.30666666666667,0)" xlink:href="#aa"/><use transform="matrix(0.02666666666666667,0,0,0.02666666666666667,62.85333333333334,0)" xlink:href="#ai"/><use transform="matrix(0.02666666666666667,0,0,0.02666666666666667,72.21333333333334,0)" xlink:href="#ah"/></g><path fill="#3a414a" d="M101-110h139v-395l15-68-48 59-89 61-55-75 228-184h73v602h136V0H101v-110" id="aq"/><use transform="matrix(0.02666666666666667,0,0,0.02666666666666667,0,0)" xlink:href="#aq" id="e"/><path fill="#3a414a" d="M278-714c122 2 197 63 197 185 0 174-115 280-196 387l-53 41v5c71-22 173-12 264-14V0H69v-67c97-107 205-220 263-366 32-79 9-170-85-166-47 2-96 24-122 48l-52-92c52-41 113-73 205-71" id="ar"/><use transform="matrix(0.02666666666666667,0,0,0.02666666666666667,0,0)" xlink:href="#ar" id="f"/><path fill="#3a414a" d="M190-243c0 170 48 308 126 407l-89 56C82 82 14-227 98-482c29-88 73-167 132-230l84 54c-77 104-124 239-124 415" id="as"/><path fill="#3a414a" d="M136-249c-2-169-49-305-125-406l88-57C244-574 312-265 228-10c-29 88-73 167-132 230l-84-55C90 60 138-71 136-249" id="at"/><g id="g"><use transform="matrix(0.02666666666666667,0,0,0.02666666666666667,0,0)" xlink:href="#as"/><use transform="matrix(0.02666666666666667,0,0,0.02666666666666667,8.266666666666667,0)" xlink:href="#ae"/><use transform="matrix(0.02666666666666667,0,0,0.02666666666666667,22.586666666666666,0)" xlink:href="#ag"/><use transform="matrix(0.02666666666666667,0,0,0.02666666666666667,36.986666666666665,0)" xlink:href="#ac"/><use transform="matrix(0.02666666666666667,0,0,0.02666666666666667,46.29333333333333,0)" xlink:href="#aj"/><use transform="matrix(0.02666666666666667,0,0,0.02666666666666667,53.46666666666666,0)" xlink:href="#ae"/><use transform="matrix(0.02666666666666667,0,0,0.02666666666666667,67.78666666666666,0)" xlink:href="#al"/><use transform="matrix(0.02666666666666667,0,0,0.02666666666666667,82.32,0)" xlink:href="#ah"/><use transform="matrix(0.02666666666666667,0,0,0.02666666666666667,95.54666666666667,0)" xlink:href="#an"/><use transform="matrix(0.02666666666666667,0,0,0.02666666666666667,103.38666666666667,0)" xlink:href="#at"/></g><path fill="#3a414a" d="M74-700h137V0H74v-700" id="au"/><path fill="#3a414a" d="M603 0c3-170-9-354 15-502h-6l-43 112-149 261h-44L219-391l-44-111h-5l20 138V0H60v-700h125l187 320 33 80h4l30-82 177-318h124V0H603" id="av"/><path fill="#3a414a" d="M321-110c92-2 118-51 119-148v-442h130v452C568-81 489 12 323 12 146 12 57-69 57-231v-469h137v442c-2 95 32 150 127 148" id="aw"/><g id="h"><use transform="matrix(0.02666666666666667,0,0,0.02666666666666667,0,0)" xlink:href="#au"/><use transform="matrix(0.02666666666666667,0,0,0.02666666666666667,7.6000000000000005,0)" xlink:href="#av"/><use transform="matrix(0.02666666666666667,0,0,0.02666666666666667,28.933333333333334,0)" xlink:href="#aw"/></g><path fill="#3a414a" d="M66-110c61 0 65-51 65-113v-477h137v512C271-47 186 36 36 6 13 2-6-4-23-11L7-123c17 9 37 13 59 13" id="ax"/><g id="i"><use transform="matrix(0.02666666666666667,0,0,0.02666666666666667,0,0)" xlink:href="#ax"/><use transform="matrix(0.02666666666666667,0,0,0.02666666666666667,8.906666666666668,0)" xlink:href="#aa"/><use transform="matrix(0.02666666666666667,0,0,0.02666666666666667,22.453333333333333,0)" xlink:href="#ac"/><use transform="matrix(0.02666666666666667,0,0,0.02666666666666667,31.759999999999994,0)" xlink:href="#ak"/><use transform="matrix(0.02666666666666667,0,0,0.02666666666666667,43.013333333333335,0)" xlink:href="#ae"/><use transform="matrix(0.02666666666666667,0,0,0.02666666666666667,57.333333333333336,0)" xlink:href="#al"/></g><path fill="#3a414a" d="M234-365l-55-110h-5l16 110V0H60v-705h100l265 373 53 107h5l-16-107v-368h130V5H497" id="ay"/><g id="j"><use transform="matrix(0.02666666666666667,0,0,0.02666666666666667,0,0)" xlink:href="#ay"/><use transform="matrix(0.02666666666666667,0,0,0.02666666666666667,17.52,0)" xlink:href="#ah"/><use transform="matrix(0.02666666666666667,0,0,0.02666666666666667,30.74666666666667,0)" xlink:href="#al"/><use transform="matrix(0.02666666666666667,0,0,0.02666666666666667,45.28,0)" xlink:href="#ae"/></g><g id="m"><use transform="matrix(0.02666666666666667,0,0,0.02666666666666667,0,0)" xlink:href="#au"/><use transform="matrix(0.02666666666666667,0,0,0.02666666666666667,7.6000000000000005,0)" xlink:href="#af"/><use transform="matrix(0.02666666666666667,0,0,0.02666666666666667,29.06666666666667,0)" xlink:href="#ah"/><use transform="matrix(0.02666666666666667,0,0,0.02666666666666667,42.29333333333334,0)" xlink:href="#ao"/><use transform="matrix(0.02666666666666667,0,0,0.02666666666666667,56.58666666666667,0)" xlink:href="#aa"/></g><path fill="#3a414a" d="M547-478c0 191-151 258-350 237V0H60v-693c55-11 127-17 193-17 172 0 294 58 294 232zm-144-2c0-106-104-123-206-107v227c108 15 206-7 206-120" id="az"/><path fill="#3a414a" d="M284-101c43 1 72-13 97-29l30 99c-37 28-97 45-160 45C91 14 37-90 33-250c-5-193 117-299 311-255 22 6 43 14 61 23l-31 106c-30-14-55-23-97-23-82 0-111 56-110 149 1 86 32 146 117 149" id="aA"/><g id="n"><use transform="matrix(0.02666666666666667,0,0,0.02666666666666667,0,0)" xlink:href="#az"/><use transform="matrix(0.02666666666666667,0,0,0.02666666666666667,14.48,0)" xlink:href="#ai"/><use transform="matrix(0.02666666666666667,0,0,0.02666666666666667,23.840000000000003,0)" xlink:href="#ae"/><use transform="matrix(0.02666666666666667,0,0,0.02666666666666667,38.160000000000004,0)" xlink:href="#aA"/><use transform="matrix(0.02666666666666667,0,0,0.02666666666666667,49.25333333333334,0)" xlink:href="#aa"/><use transform="matrix(0.02666666666666667,0,0,0.02666666666666667,62.800000000000004,0)" xlink:href="#ak"/><use transform="matrix(0.02666666666666667,0,0,0.02666666666666667,74.05333333333334,0)" xlink:href="#ak"/><use transform="matrix(0.02666666666666667,0,0,0.02666666666666667,85.30666666666667,0)" xlink:href="#aj"/><use transform="matrix(0.02666666666666667,0,0,0.02666666666666667,92.48,0)" xlink:href="#al"/><use transform="matrix(0.02666666666666667,0,0,0.02666666666666667,107.01333333333334,0)" xlink:href="#ao"/></g><g id="o"><use transform="matrix(0.02666666666666667,0,0,0.02666666666666667,0,0)" xlink:href="#az"/><use transform="matrix(0.02666666666666667,0,0,0.02666666666666667,14.48,0)" xlink:href="#ai"/><use transform="matrix(0.02666666666666667,0,0,0.02666666666666667,23.840000000000003,0)" xlink:href="#ae"/><use transform="matrix(0.02666666666666667,0,0,0.02666666666666667,38.160000000000004,0)" xlink:href="#aA"/><use transform="matrix(0.02666666666666667,0,0,0.02666666666666667,49.25333333333334,0)" xlink:href="#aa"/><use transform="matrix(0.02666666666666667,0,0,0.02666666666666667,62.800000000000004,0)" xlink:href="#ak"/><use transform="matrix(0.02666666666666667,0,0,0.02666666666666667,74.05333333333334,0)" xlink:href="#ak"/></g><g id="p"><use transform="matrix(0.02666666666666667,0,0,0.02666666666666667,0,0)" xlink:href="#au"/><use transform="matrix(0.02666666666666667,0,0,0.02666666666666667,7.6000000000000005,0)" xlink:href="#av"/><use transform="matrix(0.02666666666666667,0,0,0.02666666666666667,28.933333333333334,0)" xlink:href="#aw"/></g><path fill="#3a414a" d="M251 11C190 11 116 7 60 1v-701c61-8 136-9 204-10 233 0 345 125 345 354 0 233-120 367-358 367zm214-367c0-166-88-259-268-228v469c184 30 268-70 268-241" id="aB"/><g id="q"><use transform="matrix(0.02666666666666667,0,0,0.02666666666666667,0,0)" xlink:href="#aB"/><use transform="matrix(0.02666666666666667,0,0,0.02666666666666667,17.253333333333334,0)" xlink:href="#ah"/><use transform="matrix(0.02666666666666667,0,0,0.02666666666666667,30.48,0)" xlink:href="#ac"/><use transform="matrix(0.02666666666666667,0,0,0.02666666666666667,39.78666666666667,0)" xlink:href="#ah"/></g><path fill="#3a414a" d="M233-299h-36V0H60v-700h137v310l32-14 193-296h156L374-406l-54 38 56 39L609 0H440" id="aC"/><g id="r"><use transform="matrix(0.02666666666666667,0,0,0.02666666666666667,0,0)" xlink:href="#aC"/><use transform="matrix(0.02666666666666667,0,0,0.02666666666666667,16,0)" xlink:href="#ah"/><use transform="matrix(0.02666666666666667,0,0,0.02666666666666667,29.22666666666667,0)" xlink:href="#an"/><use transform="matrix(0.02666666666666667,0,0,0.02666666666666667,37.06666666666667,0)" xlink:href="#af"/><use transform="matrix(0.02666666666666667,0,0,0.02666666666666667,58.53333333333334,0)" xlink:href="#ah"/><use transform="matrix(0.02666666666666667,0,0,0.02666666666666667,71.76,0)" xlink:href="#al"/></g><path fill="#3a414a" d="M60-700h415v122H197v173h256v122H197V0H60v-700" id="aD"/><g id="s"><use transform="matrix(0.02666666666666667,0,0,0.02666666666666667,0,0)" xlink:href="#aD"/><use transform="matrix(0.02666666666666667,0,0,0.02666666666666667,13.546666666666667,0)" xlink:href="#aj"/><use transform="matrix(0.02666666666666667,0,0,0.02666666666666667,20.72,0)" xlink:href="#an"/><use transform="matrix(0.02666666666666667,0,0,0.02666666666666667,28.559999999999995,0)" xlink:href="#ac"/><use transform="matrix(0.02666666666666667,0,0,0.02666666666666667,37.733333333333334,0)" xlink:href="#aa"/><use transform="matrix(0.02666666666666667,0,0,0.02666666666666667,51.28,0)" xlink:href="#ai"/></g><path fill="#333" d="M603 0c3-170-9-354 15-502h-6l-43 112-149 261h-44L219-391l-44-111h-5l20 138V0H60v-700h125l187 320 33 80h4l30-82 177-318h124V0H603" id="aE"/><path fill="#333" d="M291-90c49 0 97-19 123-38l43 85c-40 32-117 57-191 57C103 14 34-89 33-250c-2-167 81-264 240-264 129 0 199 68 200 202 0 33-4 65-10 95H163c5 84 39 127 128 127zm61-208c5-67-19-112-81-112-71-1-98 47-105 112h186" id="aF"/><path fill="#333" d="M306-378c-38-49-172-17-221 4l-31-97c53-24 132-39 210-39 122 0 181 55 180 175-1 112-20 242 11 336H349l-21-69h-5c-28 41-74 78-147 76C81 5 23-45 23-138c0-142 140-164 291-160 5-37 4-65-8-80zM157-158c-3 37 24 59 62 59 49 0 79-27 96-55v-65c-71-4-153-3-158 61" id="aG"/><path fill="#333" d="M200-90c53 9 88-53 47-80-80-53-213-55-211-192 2-102 65-152 171-152 67 0 135 17 175 39l-29 94c-31-11-84-29-129-29-54 0-78 51-41 74 81 50 213 53 211 187-2 110-75 163-194 163C133 14 65-7 25-31l36-97c31 17 89 40 139 38" id="aH"/><path fill="#333" d="M211 14C88 14 52-63 52-189v-311h130v284c2 72 6 113 71 115 52 1 83-37 98-76v-323h130c6 167-14 358 16 500h-98l-23-74h-4c-29 48-84 88-161 88" id="aI"/><path fill="#333" d="M177-434c23-61 95-96 173-66l-17 122c-64-28-134-1-146 55V0H57v-500h101l15 66h4" id="aJ"/><path fill="#333" d="M557-399c-51 0-73 31-86 71V0H341v-272c-3-78 0-124-67-127-48-2-73 31-87 66V0H57v-500h101l15 66h4c32-41 75-82 150-80 72 1 105 28 126 85 29-48 73-83 146-85 130-3 157 84 156 214V0H625v-281c-3-70-2-118-68-118" id="aK"/><path fill="#333" d="M338-514c121 0 155 79 155 203V0H363v-284c-1-72-12-113-77-115-52-1-86 36-99 75V0H57v-500h103l15 66h4c32-43 81-80 159-80" id="aL"/><path fill="#333" d="M208 14C110 12 74-35 74-138v-252H5v-110h69v-94l130-37v131h122v110H204v192c2 58 2 97 50 97 30 0 44-6 67-16l23 100c-34 16-86 31-136 31" id="aM"/><g id="t"><use transform="matrix(0.02666666666666667,0,0,0.02666666666666667,0,0)" xlink:href="#aE"/><use transform="matrix(0.02666666666666667,0,0,0.02666666666666667,21.333333333333336,0)" xlink:href="#aF"/><use transform="matrix(0.02666666666666667,0,0,0.02666666666666667,34.88,0)" xlink:href="#aG"/><use transform="matrix(0.02666666666666667,0,0,0.02666666666666667,48.10666666666667,0)" xlink:href="#aH"/><use transform="matrix(0.02666666666666667,0,0,0.02666666666666667,59.36000000000001,0)" xlink:href="#aI"/><use transform="matrix(0.02666666666666667,0,0,0.02666666666666667,73.70666666666666,0)" xlink:href="#aJ"/><use transform="matrix(0.02666666666666667,0,0,0.02666666666666667,83.06666666666666,0)" xlink:href="#aF"/><use transform="matrix(0.02666666666666667,0,0,0.02666666666666667,96.61333333333333,0)" xlink:href="#aK"/><use transform="matrix(0.02666666666666667,0,0,0.02666666666666667,118.08000000000001,0)" xlink:href="#aF"/><use transform="matrix(0.02666666666666667,0,0,0.02666666666666667,131.62666666666667,0)" xlink:href="#aL"/><use transform="matrix(0.02666666666666667,0,0,0.02666666666666667,146.16,0)" xlink:href="#aM"/></g><path fill="#333" d="M251 11C190 11 116 7 60 1v-701c61-8 136-9 204-10 233 0 345 125 345 354 0 233-120 367-358 367zm214-367c0-166-88-259-268-228v469c184 30 268-70 268-241" id="aN"/><g id="u"><use transform="matrix(0.02666666666666667,0,0,0.02666666666666667,0,0)" xlink:href="#aN"/><use transform="matrix(0.02666666666666667,0,0,0.02666666666666667,17.253333333333334,0)" xlink:href="#aG"/><use transform="matrix(0.02666666666666667,0,0,0.02666666666666667,30.48,0)" xlink:href="#aM"/><use transform="matrix(0.02666666666666667,0,0,0.02666666666666667,39.78666666666667,0)" xlink:href="#aG"/></g><path fill="#3a414a" d="M419-500c36 113 86 213 109 339h4c18-121 52-226 78-339h119L575 5h-96L378-275l-13-63h-5l-12 64L252 5h-99L-8-500h141c29 113 73 211 85 340h5c19-127 66-227 100-340h96" id="aO"/><g id="w"><use transform="matrix(0.02666666666666667,0,0,0.02666666666666667,0,0)" xlink:href="#az"/><use transform="matrix(0.02666666666666667,0,0,0.02666666666666667,14.293333333333335,0)" xlink:href="#ae"/><use transform="matrix(0.02666666666666667,0,0,0.02666666666666667,28.373333333333335,0)" xlink:href="#aO"/><use transform="matrix(0.02666666666666667,0,0,0.02666666666666667,47.36,0)" xlink:href="#aa"/><use transform="matrix(0.02666666666666667,0,0,0.02666666666666667,60.90666666666667,0)" xlink:href="#ai"/></g><path fill="#3a414a" d="M71-145c69 41 291 81 291-43 0-81-98-91-160-122-80-40-153-85-159-204-10-219 276-235 440-159l-43 115c-57-35-254-76-260 33 12 78 99 90 160 122 79 41 159 84 159 200C499-50 397 11 243 14 161 16 75-5 27-28" id="aP"/><path fill="#3a414a" d="M211 14C88 14 52-63 52-189v-311h130v284c2 72 6 113 71 115 52 1 83-37 98-76v-323h130c6 167-14 358 16 500h-98l-23-74h-4c-29 48-84 88-161 88" id="aQ"/><path fill="#3a414a" d="M147-500c36 120 82 230 110 359h6c19-130 60-239 89-359h134C423-317 367-125 298 54c-28 72-55 151-146 151-35 0-62-6-83-17L93 84c63 20 96-24 107-84L-9-500h156" id="aR"/><g id="x"><use transform="matrix(0.02666666666666667,0,0,0.02666666666666667,0,0)" xlink:href="#aP"/><use transform="matrix(0.02666666666666667,0,0,0.02666666666666667,14.133333333333335,0)" xlink:href="#aQ"/><use transform="matrix(0.02666666666666667,0,0,0.02666666666666667,28.48,0)" xlink:href="#ag"/><use transform="matrix(0.02666666666666667,0,0,0.02666666666666667,42.88,0)" xlink:href="#ag"/><use transform="matrix(0.02666666666666667,0,0,0.02666666666666667,57.28,0)" xlink:href="#an"/><use transform="matrix(0.02666666666666667,0,0,0.02666666666666667,65.12,0)" xlink:href="#aR"/></g><radialGradient gradientUnits="userSpaceOnUse" id="y" fx="140" fy="-298.52" cx="140" cy="-298.52" r="15.25"><stop offset="19.6%" stop-color="#ffe342"/><stop offset="43.8%" stop-color="#ffd745"/><stop offset="87.3%" stop-color="#feb84c"/><stop offset="100%" stop-color="#fead4e"/></radialGradient><g id="z"><use transform="matrix(0.02666666666666667,0,0,0.02666666666666667,0,0)" xlink:href="#ad"/><use transform="matrix(0.02666666666666667,0,0,0.02666666666666667,13.946666666666667,0)" xlink:href="#ae"/><use transform="matrix(0.02666666666666667,0,0,0.02666666666666667,28.26666666666667,0)" xlink:href="#al"/><use transform="matrix(0.02666666666666667,0,0,0.02666666666666667,42.8,0)" xlink:href="#ac"/><use transform="matrix(0.02666666666666667,0,0,0.02666666666666667,52.10666666666666,0)" xlink:href="#ai"/><use transform="matrix(0.02666666666666667,0,0,0.02666666666666667,61.46666666666666,0)" xlink:href="#ae"/><use transform="matrix(0.02666666666666667,0,0,0.02666666666666667,75.78666666666666,0)" xlink:href="#an"/><use transform="matrix(0.02666666666666667,0,0,0.02666666666666667,83.62666666666667,0)" xlink:href="#an"/><use transform="matrix(0.02666666666666667,0,0,0.02666666666666667,91.46666666666667,0)" xlink:href="#aa"/><use transform="matrix(0.02666666666666667,0,0,0.02666666666666667,105.01333333333334,0)" xlink:href="#ai"/></g><path fill="#3a414a" d="M60-695c185-21 473-52 471 158-1 92-49 143-125 162v6c89 16 147 67 147 172C553-34 410 14 236 10 176 9 111 6 60-5v-690zm132 586c98 16 219 8 219-95 1-107-113-99-219-98v193zm200-400c5-96-111-93-200-84v187c105 7 195-13 200-103" id="aS"/><path fill="#3a414a" d="M261-512c41 0 62 4 91 15v-203h130v524c0 66 0 116 10 177h-93l-18-65h-4c-25 45-77 80-146 78C90 11 33-84 33-242c0-161 72-270 228-270zm-94 274c0 76 22 141 94 142 54 0 79-28 91-72v-212c-20-15-39-23-75-22-89 3-110 60-110 164" id="aT"/><g id="A"><use transform="matrix(0.02666666666666667,0,0,0.02666666666666667,0,0)" xlink:href="#aS"/><use transform="matrix(0.02666666666666667,0,0,0.02666666666666667,15.760000000000002,0)" xlink:href="#ae"/><use transform="matrix(0.02666666666666667,0,0,0.02666666666666667,30.080000000000002,0)" xlink:href="#ah"/><use transform="matrix(0.02666666666666667,0,0,0.02666666666666667,43.30666666666667,0)" xlink:href="#ai"/><use transform="matrix(0.02666666666666667,0,0,0.02666666666666667,52.66666666666667,0)" xlink:href="#aT"/></g><path fill="#3a414a" d="M365-108c36 0 72-9 93-26v-132l-151-16v-83h261v312c-48 43-131 67-216 67C135 14 40-127 38-350c-3-260 164-399 432-355 30 6 54 12 72 19l-28 115c-39-15-76-21-135-21-142 2-197 96-197 243 0 140 51 241 183 241" id="aU"/><path fill="#3a414a" d="M254 12C182 13 102-2 57-22v-678h130v240h4c26-30 72-53 127-52 135 3 185 99 185 249 0 170-87 274-249 275zm7-110c84 0 108-64 108-161 0-95-30-143-89-143-53 1-78 30-93 72v218c20 10 44 14 74 14" id="aV"/><g id="B"><use transform="matrix(0.02666666666666667,0,0,0.02666666666666667,0,0)" xlink:href="#aU"/><use transform="matrix(0.02666666666666667,0,0,0.02666666666666667,16.240000000000002,0)" xlink:href="#aj"/><use transform="matrix(0.02666666666666667,0,0,0.02666666666666667,23.413333333333334,0)" xlink:href="#af"/><use transform="matrix(0.02666666666666667,0,0,0.02666666666666667,44.88,0)" xlink:href="#aV"/><use transform="matrix(0.02666666666666667,0,0,0.02666666666666667,59.17333333333334,0)" xlink:href="#ah"/><use transform="matrix(0.02666666666666667,0,0,0.02666666666666667,72.4,0)" xlink:href="#an"/></g><g id="C"><use transform="matrix(0.02666666666666667,0,0,0.02666666666666667,0,0)" xlink:href="#av"/><use transform="matrix(0.02666666666666667,0,0,0.02666666666666667,21.333333333333336,0)" xlink:href="#ae"/><use transform="matrix(0.02666666666666667,0,0,0.02666666666666667,35.653333333333336,0)" xlink:href="#ac"/><use transform="matrix(0.02666666666666667,0,0,0.02666666666666667,44.82666666666667,0)" xlink:href="#ae"/><use transform="matrix(0.02666666666666667,0,0,0.02666666666666667,59.14666666666667,0)" xlink:href="#ai"/><use transform="matrix(0.02666666666666667,0,0,0.02666666666666667,68.50666666666667,0)" xlink:href="#ak"/></g><g id="D"><use transform="matrix(0.02666666666666667,0,0,0.02666666666666667,0,0)" xlink:href="#am"/><use transform="matrix(0.02666666666666667,0,0,0.02666666666666667,16.133333333333333,0)" xlink:href="#ai"/><use transform="matrix(0.02666666666666667,0,0,0.02666666666666667,25.493333333333332,0)" xlink:href="#af"/><use transform="matrix(0.02666666666666667,0,0,0.02666666666666667,46.96,0)" xlink:href="#ak"/></g><g id="E"><use transform="matrix(0.02666666666666667,0,0,0.02666666666666667,0,0)" xlink:href="#av"/><use transform="matrix(0.02666666666666667,0,0,0.02666666666666667,21.333333333333336,0)" xlink:href="#aP"/></g><path fill="#3a414a" d="M60-700h415v122H197v163h253v122H197v171h283V0H60v-700" id="aW"/><g id="F"><use transform="matrix(0.02666666666666667,0,0,0.02666666666666667,0,0)" xlink:href="#aW"/><use transform="matrix(0.02666666666666667,0,0,0.02666666666666667,13.920000000000002,0)" xlink:href="#al"/><use transform="matrix(0.02666666666666667,0,0,0.02666666666666667,28.453333333333337,0)" xlink:href="#aA"/><use transform="matrix(0.02666666666666667,0,0,0.02666666666666667,40,0)" xlink:href="#an"/><use transform="matrix(0.02666666666666667,0,0,0.02666666666666667,47.84,0)" xlink:href="#ae"/><use transform="matrix(0.02666666666666667,0,0,0.02666666666666667,62.160000000000004,0)" xlink:href="#ak"/><use transform="matrix(0.02666666666666667,0,0,0.02666666666666667,73.41333333333334,0)" xlink:href="#aQ"/><use transform="matrix(0.02666666666666667,0,0,0.02666666666666667,87.76,0)" xlink:href="#ai"/><use transform="matrix(0.02666666666666667,0,0,0.02666666666666667,97.12,0)" xlink:href="#aa"/></g><g id="G"><use transform="matrix(0.02666666666666667,0,0,0.02666666666666667,0,0)" xlink:href="#Z"/><use transform="matrix(0.02666666666666667,0,0,0.02666666666666667,11.733333333333334,0)" xlink:href="#aa"/><use transform="matrix(0.02666666666666667,0,0,0.02666666666666667,25.28,0)" xlink:href="#ak"/><use transform="matrix(0.02666666666666667,0,0,0.02666666666666667,36.53333333333333,0)" xlink:href="#ac"/></g><g id="H"><use transform="matrix(0.02666666666666667,0,0,0.02666666666666667,0,0)" xlink:href="#aP"/><use transform="matrix(0.02666666666666667,0,0,0.02666666666666667,14.133333333333335,0)" xlink:href="#aR"/><use transform="matrix(0.02666666666666667,0,0,0.02666666666666667,26.880000000000003,0)" xlink:href="#ak"/><use transform="matrix(0.02666666666666667,0,0,0.02666666666666667,38.13333333333334,0)" xlink:href="#ac"/><use transform="matrix(0.02666666666666667,0,0,0.02666666666666667,47.30666666666667,0)" xlink:href="#aa"/><use transform="matrix(0.02666666666666667,0,0,0.02666666666666667,60.85333333333334,0)" xlink:href="#af"/></g><path fill="#333" d="M557-578H353V0H216v-578H11v-122h546v122" id="aX"/><path fill="#333" d="M339-514c122 0 154 79 154 203V0H363v-284c-2-74-11-115-79-115-48 0-88 39-97 80V0H57v-700h130v256h4c32-41 74-70 148-70" id="aY"/><g id="I"><use transform="matrix(0.02666666666666667,0,0,0.02666666666666667,0,0)" xlink:href="#aX"/><use transform="matrix(0.02666666666666667,0,0,0.02666666666666667,12.346666666666668,0)" xlink:href="#aJ"/><use transform="matrix(0.02666666666666667,0,0,0.02666666666666667,21.70666666666667,0)" xlink:href="#aI"/><use transform="matrix(0.02666666666666667,0,0,0.02666666666666667,36.05333333333334,0)" xlink:href="#aM"/><use transform="matrix(0.02666666666666667,0,0,0.02666666666666667,45.36000000000001,0)" xlink:href="#aY"/></g><g id="J"><use transform="matrix(0.02666666666666667,0,0,0.02666666666666667,0,0)" xlink:href="#av"/><use transform="matrix(0.02666666666666667,0,0,0.02666666666666667,21.333333333333336,0)" xlink:href="#aa"/><use transform="matrix(0.02666666666666667,0,0,0.02666666666666667,34.88,0)" xlink:href="#ah"/><use transform="matrix(0.02666666666666667,0,0,0.02666666666666667,48.10666666666667,0)" xlink:href="#ak"/><use transform="matrix(0.02666666666666667,0,0,0.02666666666666667,59.36000000000001,0)" xlink:href="#aQ"/><use transform="matrix(0.02666666666666667,0,0,0.02666666666666667,73.70666666666666,0)" xlink:href="#ai"/><use transform="matrix(0.02666666666666667,0,0,0.02666666666666667,83.06666666666666,0)" xlink:href="#aa"/><use transform="matrix(0.02666666666666667,0,0,0.02666666666666667,96.61333333333333,0)" xlink:href="#af"/><use transform="matrix(0.02666666666666667,0,0,0.02666666666666667,118.08000000000001,0)" xlink:href="#aa"/><use transform="matrix(0.02666666666666667,0,0,0.02666666666666667,131.62666666666667,0)" xlink:href="#al"/><use transform="matrix(0.02666666666666667,0,0,0.02666666666666667,146.16,0)" xlink:href="#ac"/></g><g id="K"><use transform="matrix(0.02666666666666667,0,0,0.02666666666666667,0,0)" xlink:href="#am"/><use transform="matrix(0.02666666666666667,0,0,0.02666666666666667,16.133333333333333,0)" xlink:href="#aA"/><use transform="matrix(0.02666666666666667,0,0,0.02666666666666667,27.226666666666667,0)" xlink:href="#aA"/><use transform="matrix(0.02666666666666667,0,0,0.02666666666666667,38.77333333333333,0)" xlink:href="#aQ"/><use transform="matrix(0.02666666666666667,0,0,0.02666666666666667,53.120000000000005,0)" xlink:href="#ai"/><use transform="matrix(0.02666666666666667,0,0,0.02666666666666667,62.480000000000004,0)" xlink:href="#ah"/><use transform="matrix(0.02666666666666667,0,0,0.02666666666666667,75.70666666666668,0)" xlink:href="#aA"/><use transform="matrix(0.02666666666666667,0,0,0.02666666666666667,86.80000000000001,0)" xlink:href="#aR"/></g><path d="M376-109c57 1 96-12 130-32l28 112C494 1 420 14 351 14 136 14 41-127 38-350c-3-258 153-398 418-356 28 4 50 12 68 19l-27 116c-35-16-76-21-131-21-127 0-187 96-184 242 2 141 56 237 194 241" id="aZ"/><path d="M269 14C107 14 36-88 33-250c-2-161 81-264 236-264 162 0 233 102 235 264 2 161-80 264-235 264zm0-418c-78 0-104 61-102 154 1 82 21 154 102 154 80 0 101-62 101-154 0-83-21-154-101-154" id="ba"/><path d="M338-514c121 0 155 79 155 203V0H363v-284c-1-72-12-113-77-115-52-1-86 36-99 75V0H57v-500h103l15 66h4c32-43 81-80 159-80" id="bb"/><path d="M291-90c49 0 97-19 123-38l43 85c-40 32-117 57-191 57C103 14 34-89 33-250c-2-167 81-264 240-264 129 0 199 68 200 202 0 33-4 65-10 95H163c5 84 39 127 128 127zm61-208c5-67-19-112-81-112-71-1-98 47-105 112h186" id="bc"/><path d="M284-101c43 1 72-13 97-29l30 99c-37 28-97 45-160 45C91 14 37-90 33-250c-5-193 117-299 311-255 22 6 43 14 61 23l-31 106c-30-14-55-23-97-23-82 0-111 56-110 149 1 86 32 146 117 149" id="bd"/><path d="M208 14C110 12 74-35 74-138v-252H5v-110h69v-94l130-37v131h122v110H204v192c2 58 2 97 50 97 30 0 44-6 67-16l23 100c-34 16-86 31-136 31" id="be"/><path d="M68-500h130V0H68v-500zm62-73c-46 0-81-26-81-68s35-70 81-70c45 0 85 29 85 70 0 42-40 68-85 68" id="bf"/><g id="L"><use transform="matrix(0.02666666666666667,0,0,0.02666666666666667,0,0)" xlink:href="#aZ"/><use transform="matrix(0.02666666666666667,0,0,0.02666666666666667,13.946666666666667,0)" xlink:href="#ba"/><use transform="matrix(0.02666666666666667,0,0,0.02666666666666667,28.26666666666667,0)" xlink:href="#bb"/><use transform="matrix(0.02666666666666667,0,0,0.02666666666666667,42.8,0)" xlink:href="#bb"/><use transform="matrix(0.02666666666666667,0,0,0.02666666666666667,57.33333333333332,0)" xlink:href="#bc"/><use transform="matrix(0.02666666666666667,0,0,0.02666666666666667,70.74666666666667,0)" xlink:href="#bd"/><use transform="matrix(0.02666666666666667,0,0,0.02666666666666667,82.29333333333334,0)" xlink:href="#be"/><use transform="matrix(0.02666666666666667,0,0,0.02666666666666667,91.60000000000001,0)" xlink:href="#bf"/><use transform="matrix(0.02666666666666667,0,0,0.02666666666666667,98.77333333333334,0)" xlink:href="#ba"/><use transform="matrix(0.02666666666666667,0,0,0.02666666666666667,113.09333333333333,0)" xlink:href="#bb"/></g><path d="M503 0H60v-700h137v578h306V0" id="bg"/><path d="M200-90c53 9 88-53 47-80-80-53-213-55-211-192 2-102 65-152 171-152 67 0 135 17 175 39l-29 94c-31-11-84-29-129-29-54 0-78 51-41 74 81 50 213 53 211 187-2 110-75 163-194 163C133 14 65-7 25-31l36-97c31 17 89 40 139 38" id="bh"/><g id="M"><use transform="matrix(0.02666666666666667,0,0,0.02666666666666667,0,0)" xlink:href="#bg"/><use transform="matrix(0.02666666666666667,0,0,0.02666666666666667,13.706666666666667,0)" xlink:href="#bf"/><use transform="matrix(0.02666666666666667,0,0,0.02666666666666667,20.880000000000003,0)" xlink:href="#bb"/><use transform="matrix(0.02666666666666667,0,0,0.02666666666666667,35.41333333333334,0)" xlink:href="#bc"/><use transform="matrix(0.02666666666666667,0,0,0.02666666666666667,48.96000000000001,0)" xlink:href="#bh"/></g><path d="M233-299h-36V0H60v-700h137v310l32-14 193-296h156L374-406l-54 38 56 39L609 0H440" id="bi"/><path d="M147-500c36 120 82 230 110 359h6c19-130 60-239 89-359h134C423-317 367-125 298 54c-28 72-55 151-146 151-35 0-62-6-83-17L93 84c63 20 96-24 107-84L-9-500h156" id="bj"/><g id="N"><use transform="matrix(0.02666666666666667,0,0,0.02666666666666667,0,0)" xlink:href="#bi"/><use transform="matrix(0.02666666666666667,0,0,0.02666666666666667,15.253333333333334,0)" xlink:href="#bc"/><use transform="matrix(0.02666666666666667,0,0,0.02666666666666667,28.42666666666667,0)" xlink:href="#bj"/></g><path d="M547-478c0 191-151 258-350 237V0H60v-693c55-11 127-17 193-17 172 0 294 58 294 232zm-144-2c0-106-104-123-206-107v227c108 15 206-7 206-120" id="bk"/><path d="M419-500c36 113 86 213 109 339h4c18-121 52-226 78-339h119L575 5h-96L378-275l-13-63h-5l-12 64L252 5h-99L-8-500h141c29 113 73 211 85 340h5c19-127 66-227 100-340h96" id="bl"/><path d="M177-434c23-61 95-96 173-66l-17 122c-64-28-134-1-146 55V0H57v-500h101l15 66h4" id="bm"/><g id="O"><use transform="matrix(0.02666666666666667,0,0,0.02666666666666667,0,0)" xlink:href="#bk"/><use transform="matrix(0.02666666666666667,0,0,0.02666666666666667,14.293333333333335,0)" xlink:href="#ba"/><use transform="matrix(0.02666666666666667,0,0,0.02666666666666667,28.373333333333335,0)" xlink:href="#bl"/><use transform="matrix(0.02666666666666667,0,0,0.02666666666666667,47.36,0)" xlink:href="#bc"/><use transform="matrix(0.02666666666666667,0,0,0.02666666666666667,60.90666666666667,0)" xlink:href="#bm"/></g><g id="P"><use transform="matrix(0.02666666666666667,0,0,0.02666666666666667,0,0)" xlink:href="#aZ"/><use transform="matrix(0.02666666666666667,0,0,0.02666666666666667,13.946666666666667,0)" xlink:href="#ba"/><use transform="matrix(0.02666666666666667,0,0,0.02666666666666667,28.26666666666667,0)" xlink:href="#bb"/><use transform="matrix(0.02666666666666667,0,0,0.02666666666666667,42.8,0)" xlink:href="#bb"/><use transform="matrix(0.02666666666666667,0,0,0.02666666666666667,57.33333333333332,0)" xlink:href="#bc"/><use transform="matrix(0.02666666666666667,0,0,0.02666666666666667,70.74666666666667,0)" xlink:href="#bd"/><use transform="matrix(0.02666666666666667,0,0,0.02666666666666667,82.29333333333334,0)" xlink:href="#be"/><use transform="matrix(0.02666666666666667,0,0,0.02666666666666667,91.60000000000001,0)" xlink:href="#bf"/><use transform="matrix(0.02666666666666667,0,0,0.02666666666666667,98.77333333333334,0)" xlink:href="#ba"/><use transform="matrix(0.02666666666666667,0,0,0.02666666666666667,113.09333333333333,0)" xlink:href="#bb"/></g><path d="M339-514c122 0 154 79 154 203V0H363v-284c-2-74-11-115-79-115-48 0-88 39-97 80V0H57v-700h130v256h4c32-41 74-70 148-70" id="bn"/><path d="M306-378c-38-49-172-17-221 4l-31-97c53-24 132-39 210-39 122 0 181 55 180 175-1 112-20 242 11 336H349l-21-69h-5c-28 41-74 78-147 76C81 5 23-45 23-138c0-142 140-164 291-160 5-37 4-65-8-80zM157-158c-3 37 24 59 62 59 49 0 79-27 96-55v-65c-71-4-153-3-158 61" id="bo"/><path d="M178 14C100 13 61-20 61-100v-600h130v532c1 39 5 67 38 67 22 0 33-3 52-11l14 102c-24 12-77 25-117 24" id="bp"/><g id="Q"><use transform="matrix(0.02666666666666667,0,0,0.02666666666666667,0,0)" xlink:href="#bk"/><use transform="matrix(0.02666666666666667,0,0,0.02666666666666667,15.253333333333334,0)" xlink:href="#bn"/><use transform="matrix(0.02666666666666667,0,0,0.02666666666666667,29.78666666666667,0)" xlink:href="#bj"/><use transform="matrix(0.02666666666666667,0,0,0.02666666666666667,42.53333333333334,0)" xlink:href="#bh"/><use transform="matrix(0.02666666666666667,0,0,0.02666666666666667,53.786666666666676,0)" xlink:href="#bf"/><use transform="matrix(0.02666666666666667,0,0,0.02666666666666667,60.96,0)" xlink:href="#bd"/><use transform="matrix(0.02666666666666667,0,0,0.02666666666666667,72.50666666666667,0)" xlink:href="#bo"/><use transform="matrix(0.02666666666666667,0,0,0.02666666666666667,85.73333333333335,0)" xlink:href="#bp"/></g><g id="R"><use transform="matrix(0.02666666666666667,0,0,0.02666666666666667,0,0)" xlink:href="#aZ"/><use transform="matrix(0.02666666666666667,0,0,0.02666666666666667,13.946666666666667,0)" xlink:href="#ba"/><use transform="matrix(0.02666666666666667,0,0,0.02666666666666667,28.26666666666667,0)" xlink:href="#bb"/><use transform="matrix(0.02666666666666667,0,0,0.02666666666666667,42.8,0)" xlink:href="#be"/><use transform="matrix(0.02666666666666667,0,0,0.02666666666666667,52.10666666666666,0)" xlink:href="#bm"/><use transform="matrix(0.02666666666666667,0,0,0.02666666666666667,61.46666666666666,0)" xlink:href="#ba"/><use transform="matrix(0.02666666666666667,0,0,0.02666666666666667,75.78666666666666,0)" xlink:href="#bp"/><use transform="matrix(0.02666666666666667,0,0,0.02666666666666667,83.62666666666667,0)" xlink:href="#bp"/><use transform="matrix(0.02666666666666667,0,0,0.02666666666666667,91.46666666666667,0)" xlink:href="#bc"/><use transform="matrix(0.02666666666666667,0,0,0.02666666666666667,105.01333333333334,0)" xlink:href="#bm"/></g><path d="M524-513c0 116-60 187-147 215l49 31L586 0H428L269-274l-72-13V0H60v-693c195-32 464-42 464 180zm-144 21c0-92-93-108-183-91v203c104 6 183-11 183-112" id="bq"/><g id="S"><use transform="matrix(0.02666666666666667,0,0,0.02666666666666667,0,0)" xlink:href="#bq"/><use transform="matrix(0.02666666666666667,0,0,0.02666666666666667,16.053333333333335,0)" xlink:href="#bo"/><use transform="matrix(0.02666666666666667,0,0,0.02666666666666667,29.28,0)" xlink:href="#bl"/></g><path d="M251 11C190 11 116 7 60 1v-701c61-8 136-9 204-10 233 0 345 125 345 354 0 233-120 367-358 367zm214-367c0-166-88-259-268-228v469c184 30 268-70 268-241" id="br"/><g id="T"><use transform="matrix(0.02666666666666667,0,0,0.02666666666666667,0,0)" xlink:href="#br"/><use transform="matrix(0.02666666666666667,0,0,0.02666666666666667,17.253333333333334,0)" xlink:href="#bo"/><use transform="matrix(0.02666666666666667,0,0,0.02666666666666667,30.48,0)" xlink:href="#be"/><use transform="matrix(0.02666666666666667,0,0,0.02666666666666667,39.78666666666667,0)" xlink:href="#bo"/></g><g id="U"><use transform="matrix(0.02666666666666667,0,0,0.02666666666666667,0,0)" xlink:href="#aZ"/><use transform="matrix(0.02666666666666667,0,0,0.02666666666666667,13.946666666666667,0)" xlink:href="#ba"/><use transform="matrix(0.02666666666666667,0,0,0.02666666666666667,28.26666666666667,0)" xlink:href="#bb"/><use transform="matrix(0.02666666666666667,0,0,0.02666666666666667,42.8,0)" xlink:href="#bb"/><use transform="matrix(0.02666666666666667,0,0,0.02666666666666667,57.33333333333332,0)" xlink:href="#bc"/><use transform="matrix(0.02666666666666667,0,0,0.02666666666666667,70.74666666666667,0)" xlink:href="#bd"/><use transform="matrix(0.02666666666666667,0,0,0.02666666666666667,82.29333333333334,0)" xlink:href="#be"/><use transform="matrix(0.02666666666666667,0,0,0.02666666666666667,91.60000000000001,0)" xlink:href="#bf"/><use transform="matrix(0.02666666666666667,0,0,0.02666666666666667,98.77333333333334,0)" xlink:href="#ba"/><use transform="matrix(0.02666666666666667,0,0,0.02666666666666667,113.09333333333333,0)" xlink:href="#bb"/></g><path d="M261-512c41 0 62 4 91 15v-203h130v524c0 66 0 116 10 177h-93l-18-65h-4c-25 45-77 80-146 78C90 11 33-84 33-242c0-161 72-270 228-270zm-94 274c0 76 22 141 94 142 54 0 79-28 91-72v-212c-20-15-39-23-75-22-89 3-110 60-110 164" id="bs"/><g id="V"><use transform="matrix(0.02666666666666667,0,0,0.02666666666666667,0,0)" xlink:href="#bk"/><use transform="matrix(0.02666666666666667,0,0,0.02666666666666667,14.48,0)" xlink:href="#bm"/><use transform="matrix(0.02666666666666667,0,0,0.02666666666666667,23.840000000000003,0)" xlink:href="#ba"/><use transform="matrix(0.02666666666666667,0,0,0.02666666666666667,38.160000000000004,0)" xlink:href="#bd"/><use transform="matrix(0.02666666666666667,0,0,0.02666666666666667,49.25333333333334,0)" xlink:href="#bc"/><use transform="matrix(0.02666666666666667,0,0,0.02666666666666667,62.800000000000004,0)" xlink:href="#bh"/><use transform="matrix(0.02666666666666667,0,0,0.02666666666666667,74.05333333333334,0)" xlink:href="#bh"/><use transform="matrix(0.02666666666666667,0,0,0.02666666666666667,85.30666666666667,0)" xlink:href="#bc"/><use transform="matrix(0.02666666666666667,0,0,0.02666666666666667,98.85333333333334,0)" xlink:href="#bs"/></g><path d="M71-145c69 41 291 81 291-43 0-81-98-91-160-122-80-40-153-85-159-204-10-219 276-235 440-159l-43 115c-57-35-254-76-260 33 12 78 99 90 160 122 79 41 159 84 159 200C499-50 397 11 243 14 161 16 75-5 27-28" id="bt"/><path d="M557-399c-51 0-73 31-86 71V0H341v-272c-3-78 0-124-67-127-48-2-73 31-87 66V0H57v-500h101l15 66h4c32-41 75-82 150-80 72 1 105 28 126 85 29-48 73-83 146-85 130-3 157 84 156 214V0H625v-281c-3-70-2-118-68-118" id="bu"/><g id="W"><use transform="matrix(0.02666666666666667,0,0,0.02666666666666667,0,0)" xlink:href="#bt"/><use transform="matrix(0.02666666666666667,0,0,0.02666666666666667,14.133333333333335,0)" xlink:href="#bj"/><use transform="matrix(0.02666666666666667,0,0,0.02666666666666667,26.880000000000003,0)" xlink:href="#bh"/><use transform="matrix(0.02666666666666667,0,0,0.02666666666666667,38.13333333333334,0)" xlink:href="#be"/><use transform="matrix(0.02666666666666667,0,0,0.02666666666666667,47.30666666666667,0)" xlink:href="#bc"/><use transform="matrix(0.02666666666666667,0,0,0.02666666666666667,60.85333333333334,0)" xlink:href="#bu"/></g><path d="M335 14C121 14 41-135 38-350c-3-216 93-364 297-364 213 0 294 149 297 364 2 215-94 364-297 364zm0-606c-118 0-155 101-153 242 2 128 30 242 153 242 120 0 155-98 153-242-2-127-29-242-153-242" id="bv"/><path d="M211 14C88 14 52-63 52-189v-311h130v284c2 72 6 113 71 115 52 1 83-37 98-76v-323h130c6 167-14 358 16 500h-98l-23-74h-4c-29 48-84 88-161 88" id="bw"/><path d="M278 14c-42 0-63-5-91-19v205H57v-700h95l15 60h4c33-47 73-74 148-74 142 0 188 93 188 251 0 164-68 277-229 277zm95-280c0-79-20-138-93-138-57 0-77 30-93 76v208c20 15 38 25 74 24 90-3 112-66 112-170" id="bx"/><g id="X"><use transform="matrix(0.02666666666666667,0,0,0.02666666666666667,0,0)" xlink:href="#bv"/><use transform="matrix(0.02666666666666667,0,0,0.02666666666666667,17.866666666666667,0)" xlink:href="#bw"/><use transform="matrix(0.02666666666666667,0,0,0.02666666666666667,32.21333333333334,0)" xlink:href="#be"/><use transform="matrix(0.02666666666666667,0,0,0.02666666666666667,41.52,0)" xlink:href="#bx"/><use transform="matrix(0.02666666666666667,0,0,0.02666666666666667,55.92,0)" xlink:href="#bw"/><use transform="matrix(0.02666666666666667,0,0,0.02666666666666667,70.26666666666667,0)" xlink:href="#be"/></g><g id="Y"><use transform="matrix(0.02666666666666667,0,0,0.02666666666666667,0,0)" xlink:href="#av"/><use transform="matrix(0.02666666666666667,0,0,0.02666666666666667,21.333333333333336,0)" xlink:href="#aa"/><use transform="matrix(0.02666666666666667,0,0,0.02666666666666667,34.88,0)" xlink:href="#ah"/><use transform="matrix(0.02666666666666667,0,0,0.02666666666666667,48.10666666666667,0)" xlink:href="#ak"/><use transform="matrix(0.02666666666666667,0,0,0.02666666666666667,59.36000000000001,0)" xlink:href="#aQ"/><use transform="matrix(0.02666666666666667,0,0,0.02666666666666667,73.70666666666666,0)" xlink:href="#ai"/><use transform="matrix(0.02666666666666667,0,0,0.02666666666666667,83.06666666666666,0)" xlink:href="#aa"/><use transform="matrix(0.02666666666666667,0,0,0.02666666666666667,96.61333333333333,0)" xlink:href="#af"/><use transform="matrix(0.02666666666666667,0,0,0.02666666666666667,118.08000000000001,0)" xlink:href="#aa"/><use transform="matrix(0.02666666666666667,0,0,0.02666666666666667,131.62666666666667,0)" xlink:href="#al"/><use transform="matrix(0.02666666666666667,0,0,0.02666666666666667,146.16,0)" xlink:href="#ac"/></g></defs></g></svg>